<?xml version="1.0" encoding="utf-8"?>
<!-- Generator: Adobe Illustrator 24.0.2, SVG Export Plug-In . SVG Version: 6.00 Build 0)  -->
<svg version="1.1" xmlns="http://www.w3.org/2000/svg" xmlns:xlink="http://www.w3.org/1999/xlink" x="0px" y="0px"
	 viewBox="0 0 800 800" style="enable-background:new 0 0 800 800;" xml:space="preserve">
<style type="text/css">
	.st0{display:none;}
	.st1{display:inline;fill:#E6E6E6;}
	.st2{display:inline;}
	.st3{fill:#595F5F;}
	.st4{fill-rule:evenodd;clip-rule:evenodd;fill:#FFDECC;}
	.st5{fill-rule:evenodd;clip-rule:evenodd;fill:#406BB4;}
	.st6{fill-rule:evenodd;clip-rule:evenodd;fill:#F6C89D;}
	.st7{fill-rule:evenodd;clip-rule:evenodd;fill:#FFFFFF;}
	.st8{opacity:0.2;}
	.st9{fill:#80604A;}
	.st10{opacity:0.05;}
	.st11{opacity:0.1;fill-rule:evenodd;clip-rule:evenodd;}
	.st12{fill-rule:evenodd;clip-rule:evenodd;fill:#80604A;}
	.st13{fill-rule:evenodd;clip-rule:evenodd;fill:#FFAA00;}
	.st14{fill-rule:evenodd;clip-rule:evenodd;fill:#F6D1AF;}
	.st15{fill:#343434;}
	.st16{fill-rule:evenodd;clip-rule:evenodd;fill:#EDEDED;}
	.st17{fill-rule:evenodd;clip-rule:evenodd;fill:#F6C8AC;}
	.st18{fill-rule:evenodd;clip-rule:evenodd;fill:#343434;}
	.st19{fill-rule:evenodd;clip-rule:evenodd;fill:#1A1A1A;}
	.st20{fill-rule:evenodd;clip-rule:evenodd;fill:#1B1B1B;}
	.st21{fill-rule:evenodd;clip-rule:evenodd;fill:#268085;}
	.st22{fill:#605343;}
	.st23{fill-rule:evenodd;clip-rule:evenodd;fill:#605343;}
	.st24{fill-rule:evenodd;clip-rule:evenodd;fill:#BF9741;}
	.st25{fill-rule:evenodd;clip-rule:evenodd;fill:#7491A0;}
	.st26{fill-rule:evenodd;clip-rule:evenodd;fill:#F6DBC2;}
	.st27{opacity:0.2;fill-rule:evenodd;clip-rule:evenodd;}
	.st28{fill-rule:evenodd;clip-rule:evenodd;fill:#C93838;}
	.st29{fill-rule:evenodd;clip-rule:evenodd;fill:#F6DCB9;}
	.st30{fill-rule:evenodd;clip-rule:evenodd;fill:#84C462;}
	.st31{fill-rule:evenodd;clip-rule:evenodd;fill:#DBB18A;}
	.st32{fill-rule:evenodd;clip-rule:evenodd;fill:#F6D9C7;}
	.st33{fill:#BF9741;}
	.st34{fill-rule:evenodd;clip-rule:evenodd;fill:#806049;}
	.st35{fill-rule:evenodd;clip-rule:evenodd;fill:#F5D5C1;}
	.st36{opacity:0.05;fill-rule:evenodd;clip-rule:evenodd;}
	.st37{fill-rule:evenodd;clip-rule:evenodd;fill:#333333;}
	.st38{fill-rule:evenodd;clip-rule:evenodd;fill:#FFDBBA;}
	.st39{fill-rule:evenodd;clip-rule:evenodd;fill:#605F5B;}
	.st40{fill-rule:evenodd;clip-rule:evenodd;fill:#755A48;}
	.st41{fill:#755A48;}
	.st42{fill-rule:evenodd;clip-rule:evenodd;fill:#F6C5A0;}
	.st43{fill-rule:evenodd;clip-rule:evenodd;fill:#9FBAC4;}
	.st44{fill-rule:evenodd;clip-rule:evenodd;fill:#28A8E3;}
	.st45{fill:none;stroke:#595F5F;stroke-miterlimit:10;}
	.st46{fill:none;stroke:#595F5F;stroke-width:2;stroke-miterlimit:10;}
	.st47{fill-rule:evenodd;clip-rule:evenodd;fill:none;}
	.st48{font-family:'ProximaNova-Black';}
	.st49{font-size:20px;}
</style>
<g id="background" class="st0">
	<rect y="0.03" class="st1" width="800" height="800.97"/>
	<g id="Freepik_Sign" class="st2">
		<g>
			<path class="st3" d="M286.02,774.29v-0.26c-0.35,0.4-0.69,0.72-1.03,0.97c-0.34,0.25-0.71,0.44-1.1,0.57
				c-0.4,0.13-0.83,0.2-1.3,0.2c-0.62,0-1.2-0.13-1.72-0.39c-0.53-0.26-0.99-0.64-1.37-1.13c-0.39-0.49-0.68-1.06-0.88-1.72
				c-0.2-0.66-0.3-1.37-0.3-2.14c0-1.62,0.4-2.88,1.19-3.79c0.79-0.9,1.83-1.36,3.12-1.36c0.75,0,1.38,0.13,1.89,0.38
				c0.51,0.26,1.01,0.65,1.5,1.18v-3.83c0-0.53,0.11-0.93,0.32-1.21c0.21-0.27,0.51-0.41,0.91-0.41c0.39,0,0.69,0.12,0.91,0.38
				c0.21,0.25,0.32,0.62,0.32,1.11v11.44c0,0.49-0.11,0.86-0.34,1.11c-0.23,0.25-0.52,0.37-0.88,0.37c-0.35,0-0.65-0.13-0.88-0.38
				C286.14,775.13,286.02,774.76,286.02,774.29z M280.92,770.48c0,0.7,0.11,1.3,0.33,1.79c0.22,0.49,0.52,0.87,0.9,1.12
				c0.38,0.25,0.79,0.38,1.24,0.38c0.46,0,0.87-0.12,1.25-0.36c0.38-0.24,0.68-0.6,0.9-1.09c0.23-0.49,0.34-1.11,0.34-1.84
				c0-0.69-0.11-1.29-0.34-1.78c-0.22-0.5-0.53-0.88-0.91-1.14c-0.38-0.26-0.8-0.39-1.26-0.39c-0.47,0-0.9,0.13-1.27,0.4
				c-0.37,0.27-0.66,0.65-0.87,1.16C281.03,769.23,280.92,769.81,280.92,770.48z"/>
			<path class="st3" d="M297.46,771.13h-5.07c0.01,0.59,0.12,1.11,0.36,1.56c0.23,0.45,0.54,0.79,0.92,1.02
				c0.38,0.23,0.81,0.34,1.27,0.34c0.31,0,0.59-0.04,0.85-0.11c0.26-0.07,0.5-0.19,0.75-0.34c0.24-0.15,0.46-0.32,0.66-0.5
				c0.2-0.18,0.46-0.42,0.79-0.72c0.13-0.11,0.32-0.17,0.57-0.17c0.27,0,0.48,0.07,0.64,0.22c0.16,0.15,0.25,0.35,0.25,0.62
				c0,0.23-0.09,0.51-0.28,0.82c-0.19,0.31-0.46,0.62-0.83,0.9c-0.37,0.29-0.84,0.53-1.4,0.72c-0.56,0.19-1.2,0.29-1.93,0.29
				c-1.66,0-2.96-0.47-3.88-1.42c-0.92-0.95-1.39-2.24-1.39-3.87c0-0.77,0.11-1.48,0.34-2.13c0.23-0.66,0.56-1.22,1-1.69
				c0.44-0.47,0.98-0.83,1.62-1.08c0.64-0.25,1.35-0.38,2.13-0.38c1.01,0,1.88,0.21,2.61,0.64c0.73,0.43,1.27,0.98,1.63,1.66
				c0.36,0.68,0.54,1.37,0.54,2.07c0,0.65-0.19,1.08-0.56,1.27C298.66,771.04,298.14,771.13,297.46,771.13z M292.39,769.66h4.7
				c-0.06-0.89-0.3-1.55-0.72-1.99c-0.42-0.44-0.96-0.66-1.64-0.66c-0.65,0-1.18,0.22-1.59,0.67
				C292.73,768.13,292.48,768.79,292.39,769.66z"/>
			<path class="st3" d="M309.27,772.38c0,0.71-0.17,1.33-0.52,1.84c-0.35,0.51-0.86,0.9-1.54,1.16c-0.68,0.26-1.51,0.39-2.48,0.39
				c-0.93,0-1.73-0.14-2.39-0.43c-0.66-0.28-1.16-0.64-1.47-1.07c-0.32-0.43-0.48-0.86-0.48-1.29c0-0.29,0.1-0.53,0.3-0.73
				c0.2-0.2,0.46-0.3,0.77-0.3c0.27,0,0.48,0.07,0.63,0.2s0.29,0.32,0.42,0.56c0.27,0.46,0.58,0.81,0.96,1.04
				c0.37,0.23,0.87,0.34,1.52,0.34c0.52,0,0.94-0.12,1.28-0.35c0.33-0.23,0.5-0.5,0.5-0.79c0-0.46-0.17-0.79-0.52-1
				c-0.35-0.21-0.91-0.41-1.71-0.6c-0.89-0.22-1.62-0.46-2.18-0.7c-0.56-0.24-1.01-0.56-1.34-0.96c-0.34-0.4-0.5-0.89-0.5-1.47
				c0-0.52,0.15-1.01,0.47-1.47c0.31-0.46,0.77-0.83,1.37-1.11c0.6-0.28,1.33-0.41,2.19-0.41c0.67,0,1.27,0.07,1.81,0.21
				c0.54,0.14,0.98,0.33,1.34,0.56c0.36,0.23,0.63,0.49,0.82,0.78c0.19,0.29,0.28,0.56,0.28,0.84c0,0.3-0.1,0.54-0.3,0.73
				c-0.2,0.19-0.48,0.29-0.85,0.29c-0.27,0-0.49-0.08-0.68-0.23c-0.19-0.15-0.4-0.38-0.64-0.68c-0.2-0.25-0.43-0.46-0.69-0.61
				c-0.27-0.15-0.63-0.23-1.08-0.23c-0.47,0-0.86,0.1-1.17,0.3c-0.31,0.2-0.47,0.45-0.47,0.74c0,0.27,0.11,0.5,0.34,0.67
				c0.23,0.18,0.54,0.32,0.92,0.43c0.39,0.11,0.92,0.25,1.6,0.42c0.8,0.2,1.46,0.43,1.97,0.7c0.51,0.27,0.9,0.59,1.16,0.96
				C309.14,771.48,309.27,771.9,309.27,772.38z"/>
			<path class="st3" d="M311.92,764.02c-0.36,0-0.67-0.11-0.93-0.33c-0.26-0.22-0.38-0.54-0.38-0.94c0-0.37,0.13-0.67,0.39-0.91
				c0.26-0.24,0.57-0.36,0.92-0.36c0.34,0,0.63,0.11,0.89,0.32c0.26,0.21,0.39,0.53,0.39,0.94c0,0.4-0.13,0.71-0.38,0.94
				C312.57,763.91,312.27,764.02,311.92,764.02z M313.2,766.7v7.49c0,0.52-0.12,0.91-0.37,1.18c-0.25,0.27-0.56,0.4-0.94,0.4
				c-0.38,0-0.69-0.13-0.93-0.41c-0.24-0.27-0.36-0.66-0.36-1.17v-7.42c0-0.51,0.12-0.9,0.36-1.16c0.24-0.26,0.55-0.39,0.93-0.39
				c0.38,0,0.69,0.13,0.94,0.39C313.08,765.88,313.2,766.24,313.2,766.7z"/>
			<path class="st3" d="M324.56,767.12v7.53c0,0.86-0.09,1.6-0.28,2.22c-0.18,0.62-0.48,1.13-0.88,1.54
				c-0.41,0.4-0.94,0.71-1.59,0.9c-0.66,0.2-1.47,0.29-2.45,0.29c-0.89,0-1.69-0.12-2.39-0.38c-0.7-0.25-1.24-0.57-1.62-0.97
				c-0.38-0.4-0.57-0.8-0.57-1.22c0-0.32,0.11-0.58,0.32-0.77c0.21-0.2,0.48-0.3,0.78-0.3c0.38,0,0.71,0.17,1,0.5
				c0.14,0.17,0.28,0.34,0.43,0.52c0.15,0.18,0.31,0.32,0.49,0.45c0.18,0.12,0.4,0.21,0.65,0.28c0.25,0.06,0.55,0.09,0.87,0.09
				c0.67,0,1.19-0.09,1.56-0.28c0.37-0.19,0.63-0.45,0.78-0.78c0.15-0.33,0.24-0.69,0.26-1.08c0.03-0.38,0.04-1,0.06-1.85
				c-0.4,0.56-0.86,0.98-1.38,1.27c-0.52,0.29-1.14,0.44-1.87,0.44c-0.87,0-1.63-0.22-2.28-0.67c-0.65-0.44-1.15-1.06-1.5-1.86
				c-0.35-0.8-0.52-1.72-0.52-2.76c0-0.78,0.11-1.48,0.32-2.11c0.21-0.63,0.52-1.16,0.91-1.59c0.39-0.43,0.85-0.75,1.36-0.97
				c0.51-0.22,1.08-0.33,1.69-0.33c0.73,0,1.37,0.14,1.91,0.42c0.54,0.28,1.04,0.72,1.5,1.33v-0.35c0-0.45,0.11-0.8,0.33-1.04
				c0.22-0.25,0.51-0.37,0.86-0.37c0.5,0,0.83,0.16,1,0.49C324.48,766.04,324.56,766.51,324.56,767.12z M317.05,770.41
				c0,1.05,0.23,1.85,0.69,2.38c0.46,0.54,1.05,0.81,1.78,0.81c0.43,0,0.84-0.12,1.22-0.35c0.38-0.23,0.7-0.58,0.94-1.05
				c0.24-0.46,0.36-1.03,0.36-1.7c0-1.06-0.23-1.88-0.7-2.47c-0.47-0.59-1.08-0.88-1.84-0.88c-0.74,0-1.33,0.28-1.78,0.85
				C317.27,768.57,317.05,769.37,317.05,770.41z"/>
			<path class="st3" d="M328.68,766.66v0.31c0.46-0.6,0.95-1.04,1.5-1.32c0.54-0.28,1.16-0.42,1.87-0.42c0.68,0,1.29,0.15,1.83,0.45
				c0.54,0.3,0.94,0.72,1.21,1.26c0.17,0.32,0.28,0.66,0.33,1.03c0.05,0.37,0.08,0.84,0.08,1.41v4.82c0,0.52-0.12,0.91-0.36,1.18
				c-0.24,0.27-0.55,0.4-0.93,0.4c-0.39,0-0.7-0.13-0.94-0.41c-0.24-0.27-0.36-0.66-0.36-1.17v-4.32c0-0.85-0.12-1.51-0.36-1.96
				c-0.24-0.45-0.71-0.68-1.42-0.68c-0.46,0-0.88,0.14-1.26,0.41c-0.38,0.28-0.66,0.65-0.84,1.13c-0.13,0.39-0.19,1.11-0.19,2.17
				v3.25c0,0.53-0.12,0.92-0.37,1.18c-0.24,0.26-0.56,0.39-0.94,0.39c-0.37,0-0.68-0.13-0.92-0.41c-0.24-0.27-0.36-0.66-0.36-1.17
				v-7.49c0-0.49,0.11-0.86,0.32-1.11c0.22-0.24,0.51-0.37,0.88-0.37c0.23,0,0.43,0.05,0.62,0.16c0.18,0.11,0.33,0.27,0.44,0.48
				C328.63,766.09,328.68,766.35,328.68,766.66z"/>
			<path class="st3" d="M344.46,771.13h-5.07c0.01,0.59,0.12,1.11,0.36,1.56c0.23,0.45,0.54,0.79,0.92,1.02
				c0.38,0.23,0.81,0.34,1.27,0.34c0.31,0,0.59-0.04,0.85-0.11c0.26-0.07,0.5-0.19,0.75-0.34c0.24-0.15,0.46-0.32,0.67-0.5
				c0.2-0.18,0.46-0.42,0.79-0.72c0.13-0.11,0.32-0.17,0.57-0.17c0.27,0,0.48,0.07,0.65,0.22c0.16,0.15,0.25,0.35,0.25,0.62
				c0,0.23-0.09,0.51-0.28,0.82c-0.18,0.31-0.46,0.62-0.83,0.9c-0.37,0.29-0.83,0.53-1.4,0.72c-0.56,0.19-1.21,0.29-1.93,0.29
				c-1.66,0-2.96-0.47-3.89-1.42c-0.92-0.95-1.39-2.24-1.39-3.87c0-0.77,0.11-1.48,0.34-2.13c0.23-0.66,0.56-1.22,1-1.69
				c0.44-0.47,0.98-0.83,1.61-1.08c0.64-0.25,1.35-0.38,2.13-0.38c1.01,0,1.88,0.21,2.61,0.64c0.73,0.43,1.27,0.98,1.63,1.66
				c0.36,0.68,0.54,1.37,0.54,2.07c0,0.65-0.19,1.08-0.56,1.27C345.66,771.04,345.14,771.13,344.46,771.13z M339.39,769.66h4.7
				c-0.06-0.89-0.3-1.55-0.72-1.99c-0.42-0.44-0.96-0.66-1.64-0.66c-0.65,0-1.18,0.22-1.59,0.67
				C339.73,768.13,339.48,768.79,339.39,769.66z"/>
			<path class="st3" d="M355.03,774.29v-0.26c-0.35,0.4-0.69,0.72-1.03,0.97c-0.34,0.25-0.71,0.44-1.1,0.57
				c-0.39,0.13-0.83,0.2-1.3,0.2c-0.62,0-1.2-0.13-1.72-0.39c-0.53-0.26-0.99-0.64-1.37-1.13c-0.39-0.49-0.68-1.06-0.88-1.72
				c-0.2-0.66-0.3-1.37-0.3-2.14c0-1.62,0.4-2.88,1.19-3.79c0.79-0.9,1.83-1.36,3.12-1.36c0.75,0,1.38,0.13,1.89,0.38
				s1.01,0.65,1.5,1.18v-3.83c0-0.53,0.11-0.93,0.32-1.21c0.21-0.27,0.51-0.41,0.91-0.41c0.39,0,0.69,0.12,0.91,0.38
				c0.21,0.25,0.32,0.62,0.32,1.11v11.44c0,0.49-0.11,0.86-0.34,1.11c-0.23,0.25-0.52,0.37-0.88,0.37c-0.35,0-0.65-0.13-0.88-0.38
				C355.14,775.13,355.03,774.76,355.03,774.29z M349.93,770.48c0,0.7,0.11,1.3,0.33,1.79c0.22,0.49,0.52,0.87,0.9,1.12
				c0.38,0.25,0.79,0.38,1.24,0.38c0.46,0,0.87-0.12,1.25-0.36c0.38-0.24,0.68-0.6,0.9-1.09c0.23-0.49,0.34-1.11,0.34-1.84
				c0-0.69-0.11-1.29-0.34-1.78c-0.22-0.5-0.53-0.88-0.91-1.14c-0.38-0.26-0.8-0.39-1.26-0.39c-0.47,0-0.9,0.13-1.27,0.4
				c-0.37,0.27-0.66,0.65-0.87,1.16C350.03,769.23,349.93,769.81,349.93,770.48z"/>
			<path class="st3" d="M365.63,762.85v3.96c0.49-0.51,0.98-0.89,1.49-1.16c0.51-0.27,1.13-0.4,1.88-0.4c0.86,0,1.62,0.21,2.27,0.61
				c0.65,0.41,1.15,1,1.51,1.78c0.36,0.78,0.54,1.7,0.54,2.76c0,0.79-0.1,1.5-0.3,2.16c-0.2,0.66-0.49,1.22-0.87,1.71
				c-0.38,0.48-0.84,0.85-1.38,1.12c-0.54,0.26-1.14,0.39-1.79,0.39c-0.4,0-0.77-0.05-1.13-0.14c-0.35-0.09-0.65-0.22-0.9-0.38
				c-0.25-0.15-0.46-0.31-0.63-0.48c-0.17-0.16-0.4-0.41-0.69-0.74v0.26c0,0.49-0.12,0.86-0.35,1.11c-0.23,0.25-0.53,0.37-0.89,0.37
				c-0.37,0-0.66-0.12-0.88-0.37c-0.22-0.25-0.33-0.62-0.33-1.11v-11.32c0-0.53,0.11-0.92,0.32-1.19c0.21-0.27,0.51-0.4,0.89-0.4
				c0.4,0,0.71,0.13,0.92,0.38C365.52,762.01,365.63,762.38,365.63,762.85z M365.75,770.55c0,1.03,0.24,1.82,0.71,2.38
				c0.47,0.55,1.09,0.83,1.86,0.83c0.65,0,1.21-0.28,1.69-0.85c0.47-0.57,0.71-1.38,0.71-2.44c0-0.68-0.1-1.27-0.29-1.77
				c-0.2-0.49-0.47-0.88-0.84-1.14c-0.36-0.27-0.78-0.4-1.26-0.4c-0.49,0-0.93,0.13-1.32,0.4c-0.39,0.27-0.69,0.66-0.91,1.17
				C365.86,769.24,365.75,769.85,365.75,770.55z"/>
			<path class="st3" d="M376.67,776.09l0.24-0.58l-3.19-8.04c-0.2-0.46-0.29-0.8-0.29-1.01c0-0.22,0.06-0.43,0.17-0.62
				c0.11-0.19,0.27-0.34,0.47-0.46c0.2-0.12,0.41-0.17,0.62-0.17c0.37,0,0.65,0.12,0.85,0.36c0.19,0.24,0.36,0.58,0.5,1.02
				l2.19,6.38l2.08-5.94c0.16-0.48,0.31-0.86,0.45-1.13c0.13-0.27,0.27-0.46,0.42-0.55c0.15-0.1,0.36-0.14,0.63-0.14
				c0.2,0,0.38,0.05,0.57,0.16c0.18,0.1,0.32,0.24,0.42,0.42c0.1,0.18,0.15,0.36,0.15,0.56c-0.03,0.12-0.07,0.29-0.12,0.51
				c-0.06,0.22-0.13,0.45-0.21,0.67l-3.38,8.85c-0.29,0.78-0.58,1.39-0.86,1.83c-0.28,0.44-0.65,0.79-1.11,1.02
				c-0.46,0.24-1.08,0.36-1.86,0.36c-0.76,0-1.33-0.08-1.71-0.25c-0.38-0.17-0.57-0.47-0.57-0.9c0-0.3,0.09-0.53,0.27-0.69
				c0.18-0.16,0.45-0.24,0.8-0.24c0.14,0,0.28,0.02,0.41,0.06c0.16,0.04,0.31,0.06,0.43,0.06c0.3,0,0.53-0.04,0.7-0.13
				c0.17-0.09,0.32-0.24,0.46-0.46C376.34,776.84,376.49,776.52,376.67,776.09z"/>
		</g>
		<g>
			<path class="st3" d="M414.23,765.45h0.62v-0.78c0-0.81,0.1-1.46,0.31-1.94c0.2-0.48,0.55-0.83,1.05-1.04
				c0.49-0.22,1.16-0.33,2.02-0.33c1.52,0,2.27,0.37,2.27,1.11c0,0.24-0.08,0.45-0.24,0.62c-0.15,0.17-0.34,0.26-0.56,0.26
				c-0.1,0-0.28-0.02-0.53-0.06c-0.24-0.03-0.45-0.06-0.62-0.06c-0.47,0-0.77,0.14-0.9,0.42c-0.13,0.28-0.2,0.67-0.2,1.18v0.62h0.63
				c0.99,0,1.48,0.3,1.48,0.9c0,0.42-0.13,0.69-0.39,0.8c-0.26,0.11-0.62,0.17-1.09,0.17h-0.63v6.87c0,0.51-0.12,0.9-0.37,1.17
				c-0.24,0.27-0.55,0.41-0.94,0.41c-0.37,0-0.67-0.13-0.92-0.41c-0.24-0.27-0.36-0.66-0.36-1.17v-6.87h-0.71
				c-0.39,0-0.68-0.08-0.89-0.26c-0.21-0.17-0.31-0.4-0.31-0.68C412.93,765.76,413.37,765.45,414.23,765.45"/>
			<path class="st3" d="M422.72,772.02v2.17c0,0.52-0.13,0.92-0.38,1.18c-0.25,0.27-0.56,0.39-0.94,0.39c-0.38,0-0.69-0.13-0.93-0.4
				c-0.24-0.26-0.36-0.66-0.36-1.17v-7.22c0-1.17,0.42-1.75,1.26-1.75c0.43,0,0.74,0.13,0.93,0.41c0.19,0.27,0.29,0.67,0.32,1.21
				c0.31-0.53,0.62-0.93,0.95-1.21c0.33-0.27,0.76-0.41,1.31-0.41c0.55,0,1.07,0.13,1.59,0.41c0.52,0.27,0.77,0.64,0.77,1.08
				c0,0.31-0.11,0.58-0.33,0.78c-0.22,0.21-0.46,0.31-0.71,0.31c-0.1,0-0.33-0.06-0.69-0.18c-0.37-0.11-0.69-0.17-0.96-0.17
				c-0.38,0-0.69,0.1-0.93,0.3c-0.24,0.2-0.43,0.5-0.56,0.89c-0.13,0.39-0.22,0.87-0.27,1.4
				C422.75,770.58,422.72,771.25,422.72,772.02"/>
			<path class="st3" d="M434.64,771.13h-5.07c0.01,0.59,0.12,1.11,0.36,1.56c0.23,0.45,0.54,0.79,0.92,1.02
				c0.38,0.23,0.8,0.34,1.27,0.34c0.31,0,0.59-0.03,0.85-0.11c0.25-0.07,0.5-0.19,0.74-0.34c0.24-0.15,0.46-0.32,0.66-0.5
				c0.2-0.17,0.47-0.42,0.79-0.72c0.13-0.11,0.32-0.17,0.57-0.17c0.27,0,0.48,0.07,0.65,0.22c0.17,0.15,0.24,0.35,0.24,0.62
				c0,0.23-0.09,0.51-0.27,0.82c-0.19,0.32-0.46,0.62-0.84,0.91c-0.38,0.29-0.84,0.53-1.4,0.71c-0.56,0.19-1.21,0.29-1.93,0.29
				c-1.67,0-2.96-0.47-3.89-1.42c-0.92-0.95-1.39-2.24-1.39-3.87c0-0.77,0.12-1.48,0.35-2.13c0.22-0.66,0.56-1.22,1-1.69
				c0.44-0.47,0.97-0.83,1.61-1.08c0.64-0.25,1.35-0.38,2.13-0.38c1.01,0,1.88,0.21,2.61,0.65c0.72,0.42,1.27,0.98,1.63,1.65
				c0.36,0.68,0.54,1.37,0.54,2.07c0,0.65-0.19,1.07-0.56,1.27C435.85,771.04,435.32,771.13,434.64,771.13 M429.57,769.66h4.7
				c-0.06-0.88-0.3-1.55-0.71-1.99c-0.42-0.44-0.96-0.66-1.64-0.66c-0.65,0-1.18,0.22-1.59,0.67
				C429.91,768.12,429.66,768.78,429.57,769.66"/>
			<path class="st3" d="M445.43,771.13h-5.07c0.01,0.59,0.12,1.11,0.35,1.56c0.23,0.45,0.54,0.79,0.92,1.02
				c0.38,0.23,0.8,0.34,1.27,0.34c0.31,0,0.59-0.03,0.84-0.11c0.26-0.07,0.51-0.19,0.75-0.34c0.24-0.15,0.46-0.32,0.66-0.5
				c0.2-0.17,0.46-0.42,0.79-0.72c0.13-0.11,0.33-0.17,0.57-0.17c0.27,0,0.48,0.07,0.65,0.22c0.16,0.15,0.24,0.35,0.24,0.62
				c0,0.23-0.09,0.51-0.27,0.82c-0.18,0.32-0.46,0.62-0.83,0.91c-0.37,0.29-0.84,0.53-1.4,0.71c-0.56,0.19-1.21,0.29-1.93,0.29
				c-1.67,0-2.96-0.47-3.89-1.42c-0.92-0.95-1.39-2.24-1.39-3.87c0-0.77,0.12-1.48,0.35-2.13c0.23-0.66,0.56-1.22,1-1.69
				c0.44-0.47,0.97-0.83,1.61-1.08c0.64-0.25,1.35-0.38,2.13-0.38c1.01,0,1.88,0.21,2.61,0.65c0.72,0.42,1.27,0.98,1.62,1.65
				c0.36,0.68,0.55,1.37,0.55,2.07c0,0.65-0.19,1.07-0.56,1.27C446.63,771.04,446.11,771.13,445.43,771.13 M440.36,769.66h4.7
				c-0.06-0.88-0.3-1.55-0.71-1.99c-0.42-0.44-0.96-0.66-1.64-0.66c-0.65,0-1.18,0.22-1.59,0.67
				C440.7,768.12,440.44,768.78,440.36,769.66"/>
			<path class="st3" d="M451.11,766.68v0.31c0.49-0.6,0.99-1.04,1.53-1.32c0.52-0.29,1.12-0.43,1.78-0.43
				c0.79,0,1.54,0.21,2.21,0.62c0.67,0.41,1.2,1.02,1.59,1.81c0.39,0.79,0.59,1.73,0.59,2.81c0,0.79-0.11,1.53-0.34,2.2
				c-0.22,0.67-0.54,1.23-0.93,1.68c-0.39,0.45-0.86,0.8-1.39,1.04c-0.54,0.24-1.11,0.36-1.73,0.36c-0.74,0-1.36-0.15-1.87-0.45
				c-0.5-0.29-0.98-0.73-1.44-1.3v3.89c0,1.13-0.42,1.71-1.24,1.71c-0.49,0-0.81-0.15-0.97-0.44c-0.15-0.3-0.23-0.72-0.23-1.29
				v-11.19c0-0.49,0.11-0.86,0.32-1.11c0.21-0.24,0.51-0.36,0.88-0.36c0.37,0,0.67,0.12,0.9,0.37
				C451,765.85,451.11,766.21,451.11,766.68 M456.2,770.45c0-0.69-0.11-1.27-0.31-1.76c-0.21-0.49-0.5-0.87-0.87-1.13
				c-0.37-0.26-0.78-0.4-1.23-0.4c-0.71,0-1.32,0.28-1.81,0.84c-0.49,0.57-0.74,1.39-0.74,2.49c0,1.03,0.24,1.83,0.74,2.41
				c0.49,0.57,1.09,0.86,1.81,0.86c0.43,0,0.83-0.13,1.2-0.37c0.37-0.25,0.66-0.63,0.88-1.13
				C456.08,771.76,456.2,771.15,456.2,770.45"/>
			<path class="st3" d="M461.41,764.01c-0.36,0-0.67-0.12-0.92-0.34c-0.26-0.22-0.39-0.53-0.39-0.94c0-0.37,0.13-0.67,0.4-0.91
				c0.26-0.23,0.57-0.36,0.91-0.36c0.34,0,0.63,0.11,0.89,0.32c0.26,0.22,0.39,0.54,0.39,0.95c0,0.4-0.13,0.71-0.38,0.94
				C462.06,763.9,461.76,764.01,461.41,764.01 M462.7,766.69v7.5c0,0.52-0.12,0.91-0.37,1.17c-0.25,0.27-0.56,0.4-0.94,0.4
				c-0.38,0-0.69-0.13-0.93-0.41c-0.23-0.28-0.36-0.66-0.36-1.17v-7.43c0-0.51,0.12-0.89,0.36-1.15c0.24-0.26,0.55-0.39,0.93-0.39
				c0.38,0,0.69,0.13,0.94,0.39C462.57,765.87,462.7,766.23,462.7,766.69"/>
			<path class="st3" d="M471.05,774.58l-2.28-3.77l-1.41,1.33v2.07c0,0.5-0.13,0.88-0.4,1.15c-0.26,0.27-0.57,0.41-0.91,0.41
				c-0.4,0-0.71-0.13-0.94-0.4c-0.23-0.26-0.34-0.66-0.34-1.17v-11.06c0-0.57,0.12-1.01,0.33-1.31c0.22-0.3,0.54-0.45,0.95-0.45
				c0.4,0,0.71,0.14,0.95,0.41c0.23,0.27,0.35,0.67,0.35,1.2v6.29l2.92-3.06c0.36-0.38,0.63-0.64,0.83-0.78
				c0.19-0.14,0.42-0.21,0.69-0.21c0.33,0,0.59,0.1,0.82,0.31c0.21,0.21,0.32,0.46,0.32,0.77c0,0.38-0.35,0.89-1.05,1.52l-1.38,1.26
				l2.66,4.18c0.19,0.31,0.34,0.54,0.42,0.71c0.08,0.16,0.13,0.32,0.13,0.46c0,0.41-0.12,0.73-0.34,0.97
				c-0.22,0.24-0.52,0.35-0.88,0.35c-0.32,0-0.56-0.08-0.73-0.26C471.58,775.34,471.35,775.03,471.05,774.58"/>
			<path class="st3" d="M476.69,775.77c-0.39,0-0.73-0.12-1.01-0.38c-0.29-0.25-0.43-0.61-0.43-1.06c0-0.38,0.14-0.72,0.41-0.99
				c0.28-0.28,0.61-0.42,1.01-0.42c0.4,0,0.74,0.14,1.02,0.41c0.28,0.28,0.42,0.61,0.42,1c0,0.45-0.14,0.81-0.42,1.06
				C477.4,775.64,477.07,775.77,476.69,775.77"/>
			<path class="st3" d="M489.59,772.56c0,0.32-0.1,0.67-0.29,1.03c-0.19,0.37-0.49,0.72-0.89,1.05c-0.39,0.33-0.89,0.6-1.49,0.8
				c-0.6,0.2-1.28,0.31-2.03,0.31c-1.61,0-2.86-0.47-3.76-1.4c-0.89-0.94-1.35-2.19-1.35-3.76c0-1.07,0.21-2.01,0.62-2.82
				c0.41-0.81,1-1.45,1.78-1.89c0.78-0.45,1.72-0.67,2.79-0.67c0.67,0,1.29,0.1,1.85,0.29c0.56,0.2,1.03,0.45,1.43,0.76
				c0.39,0.31,0.69,0.64,0.89,0.99c0.21,0.35,0.31,0.68,0.31,0.99c0,0.31-0.11,0.57-0.34,0.79c-0.23,0.21-0.52,0.32-0.84,0.32
				c-0.22,0-0.4-0.06-0.54-0.17c-0.14-0.11-0.3-0.29-0.48-0.54c-0.32-0.48-0.65-0.84-1-1.08c-0.34-0.24-0.78-0.36-1.31-0.36
				c-0.76,0-1.38,0.3-1.85,0.9c-0.47,0.6-0.7,1.42-0.7,2.46c0,0.49,0.06,0.94,0.18,1.35c0.12,0.41,0.29,0.76,0.52,1.04
				c0.23,0.29,0.5,0.51,0.83,0.65c0.32,0.15,0.68,0.23,1.06,0.23c0.52,0,0.97-0.12,1.34-0.36c0.38-0.24,0.7-0.61,0.99-1.1
				c0.16-0.29,0.33-0.52,0.51-0.68c0.18-0.16,0.41-0.25,0.68-0.25c0.32,0,0.58,0.12,0.79,0.36
				C489.48,772.03,489.59,772.29,489.59,772.56"/>
			<path class="st3" d="M500.78,770.5c0,0.77-0.12,1.48-0.36,2.14c-0.25,0.65-0.59,1.21-1.05,1.68c-0.46,0.47-1,0.83-1.63,1.08
				c-0.64,0.25-1.35,0.38-2.14,0.38c-0.79,0-1.49-0.13-2.12-0.38c-0.62-0.25-1.17-0.61-1.62-1.08c-0.46-0.48-0.81-1.03-1.05-1.68
				c-0.23-0.64-0.35-1.36-0.35-2.13c0-0.79,0.12-1.51,0.36-2.16c0.24-0.65,0.59-1.21,1.04-1.67c0.45-0.46,0.99-0.82,1.63-1.07
				c0.64-0.25,1.35-0.37,2.12-0.37c0.79,0,1.5,0.12,2.14,0.38c0.64,0.25,1.18,0.62,1.64,1.08c0.46,0.47,0.8,1.03,1.04,1.67
				C500.66,769,500.78,769.71,500.78,770.5 M498.18,770.5c0-1.06-0.23-1.88-0.7-2.47c-0.46-0.6-1.09-0.89-1.88-0.89
				c-0.51,0-0.96,0.13-1.34,0.39s-0.68,0.65-0.89,1.16c-0.21,0.51-0.31,1.11-0.31,1.8c0,0.68,0.1,1.27,0.31,1.77
				c0.21,0.51,0.5,0.9,0.89,1.17c0.38,0.27,0.83,0.4,1.35,0.4c0.79,0,1.41-0.3,1.88-0.89C497.94,772.36,498.18,771.54,498.18,770.5"
				/>
			<path class="st3" d="M510.67,770.69v3.45c0,0.55-0.12,0.95-0.37,1.23c-0.25,0.27-0.57,0.41-0.98,0.41
				c-0.39,0-0.71-0.13-0.95-0.41c-0.25-0.28-0.37-0.68-0.37-1.23V770c0-0.65-0.02-1.16-0.06-1.53c-0.04-0.35-0.17-0.65-0.36-0.88
				c-0.2-0.23-0.51-0.35-0.93-0.35c-0.85,0-1.41,0.29-1.68,0.88c-0.27,0.58-0.41,1.41-0.41,2.51v3.5c0,0.54-0.12,0.95-0.36,1.22
				c-0.25,0.27-0.57,0.41-0.96,0.41c-0.4,0-0.72-0.14-0.97-0.41c-0.25-0.28-0.38-0.69-0.38-1.22v-7.42c0-0.49,0.11-0.86,0.34-1.11
				c0.23-0.26,0.53-0.38,0.89-0.38c0.36,0,0.65,0.12,0.89,0.36c0.24,0.24,0.35,0.57,0.35,0.98v0.24c0.45-0.54,0.94-0.93,1.45-1.18
				c0.52-0.26,1.08-0.39,1.71-0.39c0.65,0,1.21,0.13,1.68,0.39c0.47,0.26,0.85,0.65,1.16,1.18c0.44-0.53,0.91-0.92,1.41-1.18
				c0.5-0.26,1.05-0.39,1.66-0.39c0.71,0,1.32,0.14,1.83,0.42c0.51,0.28,0.89,0.68,1.15,1.2c0.22,0.47,0.33,1.21,0.33,2.22v5.06
				c0,0.55-0.12,0.95-0.37,1.23c-0.25,0.27-0.57,0.41-0.98,0.41c-0.39,0-0.71-0.14-0.96-0.41c-0.25-0.28-0.38-0.69-0.38-1.22v-4.36
				c0-0.56-0.02-1-0.07-1.34c-0.05-0.34-0.18-0.62-0.38-0.85c-0.21-0.23-0.53-0.34-0.95-0.34c-0.34,0-0.67,0.11-0.97,0.31
				c-0.31,0.2-0.55,0.48-0.72,0.81C510.77,768.8,510.67,769.58,510.67,770.69"/>
		</g>
		<g>
			<path class="st3" d="M389.97,769.87c0,0,0-0.01,0-0.02C389.96,769.86,389.96,769.86,389.97,769.87z"/>
			<path class="st3" d="M390.1,770.7C390.1,770.7,390.1,770.7,390.1,770.7c-0.05-0.24-0.09-0.47-0.12-0.7
				C390.01,770.23,390.05,770.46,390.1,770.7z"/>
			<path class="st3" d="M390.96,773.1c-0.01-0.01-0.01-0.02-0.02-0.03C390.95,773.08,390.95,773.09,390.96,773.1z"/>
			<path class="st3" d="M390.87,772.94c-0.02-0.05-0.04-0.09-0.07-0.13C390.83,772.86,390.85,772.9,390.87,772.94z"/>
			<path class="st3" d="M390.34,771.62c0.13,0.4,0.28,0.79,0.46,1.16C390.62,772.4,390.47,772.02,390.34,771.62
				C390.34,771.62,390.34,771.62,390.34,771.62z"/>
			<path class="st3" d="M400,759.93c0.5,0,0.87,0.04,1.29,0.11l0.12-0.76c0,0-1.17-0.36-2.71-0.23l-0.12-0.41
				c0.48-0.1,0.84-0.53,0.84-1.04c0-0.58-0.47-1.05-1.06-1.05c-0.58,0-1.06,0.47-1.06,1.05c0,0.51,0.36,0.93,0.84,1.04l0.13,0.46
				c-1.63,0.22-2.93,0.86-2.93,0.86l0.23,0.71c0.99-0.33,1.85-0.53,2.62-0.61C398.96,759.97,399.54,759.93,400,759.93z"/>
			<path class="st3" d="M390.94,763.79L390.94,763.79c0.04-0.06,0.08-0.1,0.12-0.15l-0.31-0.22l-0.49-0.36
				c-0.03,0.04-0.79,0.74-1.4,2.05c-0.03-0.04-0.06-0.08-0.09-0.12c-0.18-0.2-0.44-0.3-0.76-0.29c0,0-0.01,0-0.01,0
				c-0.2,0-0.34-0.07-0.43-0.15c0.09-0.11,0.14-0.26,0.14-0.41c0-0.37-0.3-0.67-0.67-0.67c-0.37,0-0.67,0.3-0.67,0.67
				c0,0.37,0.3,0.67,0.67,0.67c0.06,0,0.11-0.01,0.17-0.02c0.16,0.18,0.43,0.34,0.81,0.33c0.2,0,0.34,0.05,0.44,0.16
				c0.11,0.12,0.15,0.3,0.16,0.43c0,0,0,0,0,0c-0.44,1.19-0.31,2.67-0.31,2.67l1.06,0.04c0.02-0.54,0.1-1.48,0.37-2.23
				C390.25,764.73,390.91,763.83,390.94,763.79z"/>
			<path class="st3" d="M409.2,760.81c-0.37,0-0.67,0.3-0.67,0.67c0,0.06,0.01,0.11,0.02,0.16c-0.18,0.17-0.34,0.43-0.34,0.81
				c0,0.2-0.05,0.34-0.15,0.44c-0.08,0.07-0.19,0.12-0.29,0.14c-0.79-1.1-1.76-1.78-1.76-1.78l-0.76,0.81
				c0.57,0.52,1.16,1.18,1.73,1.99c0.39,0.56,0.8,1.29,1.14,2.02l1.02-0.49c0,0-0.47-1.16-1.12-2.19c0.11-0.04,0.23-0.1,0.33-0.19
				c0.2-0.18,0.3-0.44,0.29-0.76c0-0.21,0.07-0.35,0.15-0.44c0.12,0.09,0.26,0.14,0.41,0.14c0.37,0,0.67-0.3,0.67-0.67
				C409.87,761.11,409.57,760.81,409.2,760.81z"/>
			<path class="st3" d="M406.55,770.02c-1.41,0.69-3.73,1.59-6.78,2.02c-1.2,0.17-2.36,0.23-3.43,0.23c-1.39,0-2.62-0.1-3.56-0.22
				c-1.08-0.13-1.92-0.3-2.43-0.42c0.12,0.39,0.27,0.78,0.45,1.16c0,0.01,0.01,0.02,0.01,0.03c0.02,0.04,0.04,0.09,0.07,0.13
				c0.02,0.04,0.04,0.09,0.07,0.13c0.01,0.01,0.01,0.02,0.02,0.03c0.3,0.57,0.67,1.09,1.08,1.55c1.44,1.57,2.91,1.82,2.92,1.83
				l0.02,0l0.02,0.01c0.01,0.01,1.31,0.43,3.29,0.43c1.94,0,3.85-0.39,5.67-1.17c1.35-0.69,2.62-1.74,3.25-2.67
				c0.49-0.72,0.84-1.49,1.05-2.29c0.11-0.43,0.2-1.11,0.15-1.83C408.02,769.22,407.39,769.6,406.55,770.02z"/>
			<path class="st3" d="M391.39,764.12c-0.04,0.06-0.65,0.93-1.14,2.25c-0.36,0.99-0.35,2.44-0.35,2.46v0
				c0,0.34,0.02,0.68,0.06,1.01c0,0.01,0,0.01,0,0.02c0,0.04,0.01,0.08,0.02,0.13c0.03,0.23,0.07,0.47,0.12,0.7
				c0.7,0.18,4.88,1.15,9.55,0.5c2.93-0.41,5.15-1.27,6.5-1.93c1.12-0.54,1.84-1.04,2.12-1.24c-0.28-1.03-1.04-2.64-1.74-3.65
				c-2.01-2.87-4.17-3.6-5.28-3.78c-0.42-0.07-0.76-0.11-1.24-0.11c-0.45,0-1,0.04-1.74,0.12c-0.74,0.08-1.57,0.27-2.53,0.6
				c-1.35,0.45-2.57,1.16-3.53,2.05l-0.03,0.03C392.03,763.41,391.73,763.69,391.39,764.12z M403.66,763.46
				c0.96,0,1.74,0.78,1.74,1.74c0,0.96-0.78,1.74-1.74,1.74c-0.96,0-1.74-0.78-1.74-1.74C401.92,764.24,402.7,763.46,403.66,763.46z
				 M395.42,763.39c1.56,0,2.82,1.26,2.82,2.82c0,1.55-1.26,2.81-2.82,2.81c-1.55,0-2.82-1.26-2.82-2.81
				C392.6,764.65,393.86,763.39,395.42,763.39z"/>
		</g>
	</g>
</g>
<g id="objects">
	<g>
		<g>
			<path class="st4" d="M460.45,249.63c-42.93,18.82-55.8,28.85-60.9,33.36c-7.84,6.94-12.18,32.82-16.81,54.78h97.12h97.12
				c-4.62-21.97-8.96-47.84-16.81-54.78c-5.09-4.51-17.49-14.28-60.42-33.1L460.45,249.63z"/>
			<path class="st5" d="M460.45,249.63c-42.93,18.82-55.8,28.85-60.89,33.36c-7.84,6.94-12.18,32.82-16.81,54.78h97.12h97.12
				c-4.62-21.97-8.96-47.84-16.81-54.78c-5.09-4.51-17.49-14.28-60.42-33.1L460.45,249.63z"/>
			<path class="st6" d="M459.03,212.12v31.86v15.73c11.46,13.55,30.22,14.04,41.69,0v-15.73v-31.86
				C500.71,186.42,459.03,186.42,459.03,212.12z"/>
			<path class="st6" d="M436.4,182.21c3.67-1.21,8.34,2.96,10.43,9.31c2.09,6.35,0.81,12.48-2.86,13.68
				c-3.67,1.21-8.34-2.96-10.43-9.31C431.45,189.54,432.73,183.41,436.4,182.21z"/>
			<path class="st6" d="M523.15,182.21c-3.67-1.21-8.35,2.96-10.44,9.31c-2.09,6.35-0.81,12.48,2.86,13.68
				c3.67,1.21,8.35-2.96,10.44-9.31C528.1,189.54,526.82,183.41,523.15,182.21z"/>
			<path class="st7" d="M459.03,243.98l-1.82,7.09l5.1,36.91l17.67-17.92L459.03,243.98z"/>
			<path class="st8" d="M459.03,235.16v1.5c0,0,10.65,12.64,20.8,13.09c10.16,0.46,20.88-12.24,20.88-12.24v-2.31"/>
			<g>
				<path class="st6" d="M479.9,126.69c-64.12,0-39.55,87.84-35.36,94.57c4.62,7.42,25,23.78,35.36,23.78
					c10.36,0,30.74-16.36,35.36-23.78C519.45,214.53,544.03,126.69,479.9,126.69z"/>
				<path class="st9" d="M525.44,186.86c3.34-16.33,1.18-54.38-11.53-53.12c-11.82-12.02-53.02-14.23-64.31-1.27
					c-25.84,4.97-13.85,54.6-13.85,54.6c0.81,4.82,1.92,9.25,3.06,12.95c1.73-0.12,3.46-0.23,5.2-0.32
					c-1.87-3.41-3.42-6.92-4.02-9.49c-0.34-1.47-1.09-6.81-1.05-7.98c0.36-8.93,6.82-34.92,17.94-36.96
					c4.34-0.79,15.17,8.96,22.27,8.95c7.46-0.2,16.84-10.02,21.68-9.37c11.56,1.57,21.36,25.43,21.26,36.95
					c-0.01,1.48-1.88,10.33-4.67,16.59c1.86-0.1,3.72-0.21,5.57-0.34c0.94-3.32,1.83-7.11,2.51-11.18L525.44,186.86z"/>
			</g>
			<path class="st7" d="M500.71,243.98l1.44,6.97l-4.79,37.4l-17.38-18.29L500.71,243.98z"/>
			<polyline class="st10" points="459.03,243.98 479.98,270.05 500.71,243.98 500.71,243.36 479.98,269.31 459.03,243.36 
				459.03,243.98 			"/>
			<polygon class="st11" points="475.95,287.53 483.78,287.53 483.82,287.78 475.92,287.78 			"/>
			<g>
				<path class="st12" d="M481.46,210.81c-0.89-0.01-1.56,1.3-1.56,1.3s-0.67-1.31-1.56-1.3c-3.67,0.04-18.74,1.52-23.13,7.1
					c0,0,21.31-0.37,22.47-0.71c1.17-0.35,2.22-2.66,2.22-2.66s1.05,2.31,2.22,2.66c1.17,0.35,22.47,0.71,22.47,0.71
					C500.21,212.33,485.14,210.85,481.46,210.81z"/>
			</g>
		</g>
		<g>
			<path class="st4" d="M290.45,249.63c-42.93,18.82-55.8,28.85-60.9,33.36c-7.84,6.94-12.18,32.82-16.81,54.78h97.12h97.12
				c-4.62-21.97-8.96-47.84-16.81-54.78c-5.09-4.51-17.49-14.28-60.42-33.1L290.45,249.63z"/>
			<path class="st13" d="M290.45,249.63c-42.93,18.82-55.8,28.85-60.89,33.36c-7.84,6.94-12.18,32.82-16.81,54.78h97.12h97.12
				c-4.62-21.97-8.96-47.84-16.81-54.78c-5.09-4.51-17.49-14.28-60.42-33.1L290.45,249.63z"/>
			<path class="st14" d="M289.03,212.12v31.86v15.73c11.46,13.55,30.22,14.04,41.69,0v-15.73v-31.86
				C330.71,186.42,289.03,186.42,289.03,212.12z"/>
			<path class="st14" d="M266.4,182.21c3.67-1.21,8.34,2.96,10.43,9.31c2.09,6.35,0.81,12.48-2.86,13.68
				c-3.67,1.21-8.34-2.96-10.43-9.31C261.45,189.54,262.73,183.41,266.4,182.21z"/>
			<path class="st14" d="M353.15,182.21c-3.67-1.21-8.35,2.96-10.44,9.31c-2.09,6.35-0.81,12.48,2.86,13.68
				c3.67,1.21,8.35-2.96,10.44-9.31C358.1,189.54,356.82,183.41,353.15,182.21z"/>
			<path class="st8" d="M289.03,235.16v1.5c0,0,10.65,12.64,20.8,13.09c10.16,0.46,20.88-12.24,20.88-12.24v-2.31"/>
			<g>
				<path class="st14" d="M309.9,126.69c-64.12,0-39.55,87.84-35.36,94.57c4.62,7.42,25,23.78,35.36,23.78
					c10.36,0,30.74-16.36,35.36-23.78C349.45,214.53,374.03,126.69,309.9,126.69z"/>
				<path class="st15" d="M338.67,128.74c-21.66-17.04-55.1-6.88-65.2,7.32c-12.64,17.77-8.17,44.76-5.18,65.03
					c0-0.03,0-0.06,0-0.09c0.03,0.2,0.08,0.41,0.13,0.63c0.04,0.16,0.4,0.63,0.47,0.76c0.11,0.19,0.89-0.02,1.15-0.14
					c0.1-0.04,0.14-0.17,0.14-0.27c0.12-1.79,0.01-5.34,0.01-5.38c-0.24-2.79-0.84-5.48-1.25-8.2c2.03-12.78,8.03-15.47,11.17-30.89
					c0.66-1.03,1.38-2.03,2.12-3c0.86-1.12,1.75-2.2,2.79-3.15c0.55-0.33,1.07-0.69,1.58-1.09c11.65-4.27,23.67,0.85,34.68,5.34
					c4.21,1.72,4.83-5.75,9.47-6.11c1.98-0.15,6.08,6.56,7.75,6.37c16.52-1.95,9.61,23.09,12.17,34.66
					c-0.35,2.01-0.73,4.02-0.9,6.08c0,0.04-0.11,3.59,0.01,5.38c0.01,0.1,0.05,0.23,0.14,0.27c0.26,0.13,1.04,0.33,1.15,0.14
					c0.07-0.13,0.43-0.6,0.47-0.76c0.2-0.77,0.24-1.42,0.28-2.2c0.13-1.01,0.31-2.09,0.45-3.19
					C355.6,183.73,361.74,134.12,338.67,128.74z M305.84,145.49c-0.36-0.11-0.72-0.22-1.08-0.32c0.54,0.13,1.07,0.27,1.61,0.42
					C306.19,145.55,306.02,145.52,305.84,145.49z"/>
			</g>
			<polygon class="st11" points="305.95,287.53 313.78,287.53 313.82,287.78 305.92,287.78 			"/>
			<path class="st15" d="M322.28,134.67c0,0-18.67-13-35.33-6c-16.67,7-31.33,9.67-35,5c0,0-10.33,21.67,9,33
				C280.28,178,302.28,169,308.61,162c6.33-7,16.67-18.33,22.33-16S322.28,134.67,322.28,134.67z"/>
		</g>
		<g>
			<path class="st4" d="M195.45,335.63c-42.93,18.82-55.8,28.85-60.9,33.36c-7.84,6.94-12.18,32.82-16.81,54.78h97.12h97.12
				c-4.62-21.97-8.96-47.84-16.81-54.78c-5.09-4.51-17.49-14.28-60.42-33.1L195.45,335.63z"/>
			<path class="st16" d="M195.45,335.63c-42.93,18.82-55.8,28.85-60.89,33.36c-7.84,6.94-12.18,32.82-16.81,54.78h97.12h97.12
				c-4.62-21.97-8.96-47.84-16.81-54.78c-5.09-4.51-17.49-14.28-60.42-33.1L195.45,335.63z"/>
			<path class="st17" d="M194.03,298.12v31.86v15.73c11.46,13.55,30.22,14.04,41.69,0v-15.73v-31.86
				C235.71,272.42,194.03,272.42,194.03,298.12z"/>
			<path class="st17" d="M171.4,268.21c3.67-1.21,8.34,2.96,10.43,9.31c2.09,6.35,0.81,12.48-2.86,13.68
				c-3.67,1.21-8.34-2.96-10.43-9.31C166.45,275.54,167.73,269.41,171.4,268.21z"/>
			<path class="st17" d="M258.15,268.21c-3.67-1.21-8.35,2.96-10.44,9.31c-2.09,6.35-0.81,12.48,2.86,13.68
				c3.67,1.21,8.35-2.96,10.44-9.31C263.1,275.54,261.82,269.41,258.15,268.21z"/>
			<path class="st18" d="M214.98,356.05c0,0-29.09,6.94-29.09,8.7c0,1.76,11.07,59.02,11.07,59.02h39.49l4.53-58.77L214.98,356.05z"
				/>
			<polygon class="st19" points="194.03,336.26 194.03,345.7 203.08,423.77 187.51,423.77 170.38,389 186.73,378.1 166.75,368.76 
				185.12,340.25 			"/>
			<polygon class="st20" points="235.71,336.31 235.71,345.7 226.57,423.77 242.14,423.77 259.26,389 242.92,378.1 262.89,368.76 
				246.57,341.13 			"/>
			<path class="st21" d="M205.9,365.71l5.05,7.82c2.61,0,5.22,0,7.83,0l5.05-7.82l-8.86-9.65L205.9,365.71z"/>
			<polygon class="st21" points="210.95,373.53 203.77,423.77 225.97,423.77 218.78,373.53 			"/>
			<path class="st18" d="M194.03,329.98l-1.82,7.09l5.1,36.91l17.67-17.92L194.03,329.98z"/>
			<path class="st8" d="M194.03,321.16v1.5c0,0,10.65,12.64,20.8,13.09c10.16,0.46,20.88-12.24,20.88-12.24v-2.31"/>
			<g>
				<path class="st17" d="M214.9,212.69c-64.12,0-39.55,87.84-35.36,94.57c4.62,7.42,25,23.78,35.36,23.78
					c10.36,0,30.74-16.36,35.36-23.78C254.45,300.53,279.03,212.69,214.9,212.69z"/>
			</g>
			<path class="st18" d="M235.71,329.98l1.44,6.97l-4.79,37.4l-17.38-18.29L235.71,329.98z"/>
			<polyline class="st10" points="194.03,329.98 214.98,356.05 235.71,329.98 235.71,329.36 214.98,355.31 194.03,329.36 
				194.03,329.98 			"/>
			<polygon class="st11" points="210.95,373.53 218.78,373.53 218.82,373.78 210.92,373.78 			"/>
			<g>
				<path class="st22" d="M256.61,277.7c-0.32,1.2-0.66,2.26-0.66,2.26s-5.75,19.57-10.67,25.64c-9.52,11.74-21.94,19.01-30.4,19.06
					c-8.32,0.05-20.57-6.56-30.19-18.03c-3.81-4.54-10.79-24.99-10.91-26.66c-0.07-1.04-0.32-2.08-0.55-3.12
					c-1.29-0.04-1.33,8.68-1.33,8.68c1.94,10.15,3.31,16.85,7.3,22.42c6.37,8.9,24.35,22.97,35.26,22.97
					c10.92,0,28.9-14.07,35.26-22.97c4.02-5.62,5.12-13.1,7.33-23.64C257.06,284.29,257.6,277.78,256.61,277.7z"/>
				<g>
					<path class="st23" d="M234.57,303.94c-1.48-3.12-13.44-7.35-15.59-8.14c-2.15-0.79-3.68,1.97-3.68,1.97s-1.53-2.76-3.68-1.97
						c-2.15,0.79-14.11,5.02-15.59,8.14c-1.48,3.12-2.2,5.28-2.2,7.42c0,2.14,0,9.74,0,9.74s2.12,0.14,3.34-0.79
						c1.22-0.92,2.61-3.55,2.61-6.82c0-3.27,2.4-5.89,5.32-6.49c3.08-0.62,10.2-1.81,10.2-3.75c0,1.93,7.61,3.28,10.2,3.75
						c2.93,0.53,5.32,3.22,5.32,6.49c0,3.27,1.39,5.89,2.61,6.82c1.22,0.93,3.34,0.79,3.34,0.79s0-7.6,0-9.74
						C236.76,309.22,236.05,307.06,234.57,303.94z"/>
				</g>
			</g>
			<path class="st21" d="M235.27,290.96c0.36-0.01,0.73-0.03,1.12-0.06c10.43-0.87,13-5.56,14.17-11.48
				c1.29-6.5,1.37-8.77,3.05-9.36c1.23-0.44,1.53-1.9,1.49-3.59c-0.04-1.69-0.1-1.87-2.13-2.58c-1.61-0.56-10.52-1.37-17.2-0.95
				l-0.03,1.75c5.26-0.29,10.34,0.35,11.81,1.3c3.35,2.17,2.37,12.63-0.45,17.82c-1.96,3.6-7.14,5.43-11.81,5.51L235.27,290.96z
				 M215.78,266.35c-2.3,0.06-11.72-2.66-18.43-3.24c-0.48-0.05-0.96-0.08-1.47-0.11l-0.03,1.75c5.45,0.25,11.09,1.48,13.02,4.39
				c3.17,4.77-2.53,16.44-7.68,19.03c-1.57,0.79-3.63,1.2-5.8,1.22l-0.03,1.65c9.02,0.01,12.35-6.49,13.47-8.66
				c2.1-4.08,1.66-9.71,6.83-9.72c5.16-0.01,4.48,5.51,6.32,9.59c0.99,2.2,3.92,8.96,13.28,8.69l0.02-1.65
				c-2.31,0.04-4.5-0.36-6.11-1.19c-4.99-2.57-9.98-14.21-6.52-19c2.09-2.89,7.68-4.15,13.08-4.44l0.03-1.75
				c-0.41,0.02-0.82,0.05-1.22,0.09C228.52,263.57,221.2,266.21,215.78,266.35z M195.88,263.01c-6.62-0.35-15.38,0.48-17,1.04
				c-2.08,0.72-2.15,0.9-2.29,2.6c-0.14,1.69,0.08,3.15,1.27,3.58c1.64,0.59,1.59,2.86,2.49,9.35c0.81,5.92,3.09,10.59,13.47,11.41
				c0.53,0.05,1.05,0.06,1.55,0.07l0.03-1.65c-4.77,0.04-10.08-1.77-11.87-5.46c-2.51-5.18-2.86-15.63,0.64-17.82
				c1.51-0.95,6.51-1.6,11.68-1.36L195.88,263.01z"/>
		</g>
		<g>
			<path class="st24" d="M134.07,318.69c3.95-7.26,35.39-13.67,48.22,12.16c12.83,25.83,6.37,34.88,13.44,43.99
				c7.08,9.12-9.61,79.69-49.14,79.46c-42.25-0.25-51.46-67.75-43.06-81.42C111.95,359.21,104.6,318.67,134.07,318.69z"/>
			<path class="st25" d="M165.08,438.82c-0.36,0.56-35.55,1.12-35.94,1.68c-11.05,15.77-34.93,18.67-53.93,22.92
				c-18.9,4.22-19.63,28.23-19.66,44.22h184.24c-0.03-15.99-0.38-39.91-19.66-44.22C200.84,459.11,175.56,455.3,165.08,438.82z"/>
			<path class="st7" d="M166.15,440.38v8.68l-8.99,58.58H138l-8.91-57.95v-9.12c0.02-0.02,0.03-0.05,0.05-0.07
				c0.39-0.56,35.58-1.12,35.94-1.68C165.42,439.35,165.77,439.87,166.15,440.38z"/>
			<path class="st26" d="M129.21,401.14v30.28v14.94c9.25,18.92,25.85,19.41,36.92,0v-14.94v-30.28
				C166.12,376.73,129.21,376.73,129.21,401.14z"/>
			<path class="st26" d="M196.36,380.03c-3.69-1.66-8.9,2.42-11.63,9.1c-2.74,6.69-1.97,13.45,1.72,15.11
				c3.69,1.66,8.9-2.41,11.64-9.1C200.81,388.45,200.05,381.69,196.36,380.03z"/>
			<path class="st26" d="M99.01,380.03c3.69-1.66,8.9,2.41,11.64,9.1c2.74,6.69,1.97,13.45-1.72,15.11
				c-3.69,1.66-8.9-2.41-11.64-9.1C94.55,388.45,95.33,381.69,99.01,380.03z"/>
			<path class="st27" d="M129.21,423.64v1.26c0,0,11.58,11.57,18.29,11.57c6.7,0,18.63-11.7,18.63-11.7v-1.13H129.21z"/>
			<path class="st26" d="M147.7,432.42c-11.46,0-35.68-18.89-43.16-45.95c-7.56-27.33,6.68-66.52,43.16-66.52
				c36.49,0,50.72,39.19,43.16,66.52C183.38,413.53,159.16,432.42,147.7,432.42z"/>
			<path class="st24" d="M155.12,353.84c8.95,18.77,12.59,24.31,24.49,19.36c11.9-4.95,9.64,8.93,7.48,18.84
				c10.54-13.38,9.3-26.09,6.03-39.01c-3.59-14.16-21.72-35.7-38.72-35.31c-9.24-0.97-23.22,0.18-38.09,10.89
				c-25.97,18.72-17.3,60.77-10.3,65.72c-6.78-38.95,9.82-31.02,21.26-51.39C131.03,333.98,145.39,333.43,155.12,353.84z"/>
			<polygon class="st16" points="138.15,507.62 122.58,507.62 121.51,507.64 105.45,492.99 121.8,482.09 101.82,472.74 
				115.05,452.2 120.19,444.23 129.09,440.24 129.09,449.69 138,507.64 			"/>
			<polygon class="st16" points="173.36,481.46 189.7,492.36 173.61,507.64 172.58,507.62 157.01,507.62 157.16,507.64 
				166.15,449.06 166.15,439.67 177.01,444.49 181.8,452.61 193.33,472.12 			"/>
		</g>
		<g>
			<path class="st23" d="M524.05,230.86c2.17-7.26,19.46-13.67,26.51,12.16c7.05,25.83,3.5,34.88,7.39,43.99
				c3.89,9.12-5.29,79.69-27.01,79.46c-23.23-0.25-28.29-67.75-23.67-81.42C511.89,271.38,507.85,230.84,524.05,230.86z"/>
			<path class="st23" d="M600.49,230.86c-2.17-7.26-19.46-13.67-26.51,12.16c-7.05,25.83-3.5,34.88-7.39,43.99
				c-3.89,9.12,5.29,79.69,27.01,79.46c23.23-0.25,28.29-67.75,23.67-81.42C612.66,271.38,616.69,230.84,600.49,230.86z"/>
			<path class="st28" d="M581.08,336.82c-0.36,0.56-35.55,1.12-35.94,1.68c-11.05,15.77-34.93,18.67-53.93,22.92
				c-18.9,4.22-19.63,28.23-19.66,44.22h184.24c-0.03-15.99-0.38-39.91-19.66-44.22C616.84,357.11,591.56,353.3,581.08,336.82z"/>
			<path class="st28" d="M582.15,338.38v8.68l-8.99,58.58H554l-8.91-57.95v-9.12c0.02-0.02,0.03-0.05,0.05-0.07
				c0.39-0.56,35.58-1.12,35.94-1.68C581.42,337.35,581.77,337.87,582.15,338.38z"/>
			<path class="st29" d="M545.21,299.14v30.28v14.94c9.25,18.92,25.85,19.41,36.92,0v-14.94v-30.28
				C582.12,274.73,545.21,274.73,545.21,299.14z"/>
			<path class="st29" d="M612.36,278.03c-3.69-1.66-8.9,2.42-11.63,9.1c-2.74,6.69-1.97,13.45,1.72,15.11
				c3.69,1.66,8.9-2.41,11.64-9.1C616.81,286.45,616.05,279.69,612.36,278.03z"/>
			<path class="st29" d="M515.01,278.03c3.69-1.66,8.9,2.41,11.64,9.1c2.74,6.69,1.97,13.45-1.72,15.11
				c-3.69,1.66-8.9-2.41-11.64-9.1C510.55,286.45,511.33,279.69,515.01,278.03z"/>
			<path class="st27" d="M545.21,321.64v1.26c0,0,11.58,11.57,18.29,11.57c6.7,0,18.63-11.7,18.63-11.7v-1.13H545.21z"/>
			<path class="st29" d="M563.7,330.42c-11.46,0-35.68-18.89-43.16-45.95c-7.56-27.33,6.68-66.52,43.16-66.52
				c36.49,0,50.72,39.19,43.16,66.52C599.38,311.53,575.16,330.42,563.7,330.42z"/>
			<path class="st23" d="M609.12,251.02c-3.59-14.16-21.72-35.7-38.72-35.31c-2.45-0.26-5.24-0.36-8.28-0.18
				c-3.04-0.18-5.83-0.08-8.28,0.18c-17-0.4-35.12,21.15-38.72,35.31c-2.89,11.38-4.19,22.6,2.75,34.27
				c1.25,3.52,2.72,6.04,4.13,7.04c-1.56-8.96-1.88-15.43-1.31-20.34c1.3-1.94,3.73-2.54,7.93-0.8c11.9,4.96,15.54-0.59,24.49-19.36
				c2.75-5.76,4.86-12.55,9-12.55c4.14,0,6.26,6.79,9,12.55c8.95,18.77,12.59,24.31,24.49,19.36c4.2-1.75,6.63-1.14,7.93,0.8
				c0.57,4.91,0.25,11.39-1.31,20.34c1.41-1,2.88-3.52,4.13-7.04C613.3,273.63,612,262.41,609.12,251.02z"/>
			<polygon class="st16" points="554.15,405.62 538.58,405.62 537.51,405.64 521.45,390.99 537.8,380.09 517.82,370.74 
				531.05,350.2 536.19,342.23 545.09,338.24 545.09,347.69 554,405.64 			"/>
			<polygon class="st16" points="589.36,379.46 605.7,390.36 589.61,405.64 588.58,405.62 573.01,405.62 573.16,405.64 
				582.15,347.06 582.15,337.67 593.01,342.49 597.8,350.61 609.33,370.12 			"/>
		</g>
		<g>
			<path class="st4" d="M627.92,419.64c-42.93,18.82-55.8,28.85-60.9,33.36c-7.84,6.94-12.18,32.82-16.81,54.78h97.12h97.12
				c-4.62-21.97-8.96-47.84-16.81-54.78c-5.09-4.51-17.49-14.28-60.42-33.1L627.92,419.64z"/>
			<path class="st30" d="M627.91,419.64c-42.93,18.82-55.8,28.85-60.89,33.36c-7.84,6.94-12.18,32.82-16.81,54.78h97.12h97.12
				c-4.62-21.97-8.96-47.84-16.81-54.78c-5.09-4.51-17.49-14.28-60.42-33.1L627.91,419.64z"/>
			<path class="st31" d="M626.49,382.12v31.86v15.73c11.46,13.55,30.22,14.04,41.69,0v-15.73v-31.86
				C668.18,356.43,626.49,356.43,626.49,382.12z"/>
			<path class="st14" d="M603.87,352.21c3.67-1.21,8.34,2.96,10.43,9.31c2.09,6.35,0.81,12.48-2.86,13.69
				c-3.67,1.21-8.34-2.96-10.43-9.31C598.91,359.54,600.2,353.41,603.87,352.21z"/>
			<path class="st14" d="M690.62,352.21c-3.67-1.21-8.35,2.96-10.44,9.31c-2.09,6.35-0.81,12.48,2.86,13.69
				c3.67,1.21,8.35-2.96,10.44-9.31C695.57,359.54,694.28,353.41,690.62,352.21z"/>
			<path class="st18" d="M638.37,449.71l5.05,7.82c2.61,0,5.22,0,7.83,0l5.05-7.82l-8.86-9.65L638.37,449.71z"/>
			<polygon class="st18" points="643.42,457.53 636.23,507.77 658.44,507.77 651.25,457.53 			"/>
			<path class="st16" d="M626.49,413.98l-1.82,7.09l5.1,36.91l17.67-17.92L626.49,413.98z"/>
			<path class="st8" d="M626.49,405.16v1.5c0,0,10.65,12.64,20.8,13.09c10.16,0.46,20.88-12.24,20.88-12.24v-2.31"/>
			<g>
				<path class="st31" d="M647.37,296.69c-64.12,0-39.55,87.84-35.36,94.57c4.62,7.42,25,23.78,35.36,23.78
					c10.36,0,30.74-16.36,35.36-23.78C686.92,384.53,711.49,296.69,647.37,296.69z"/>
				<path class="st15" d="M619.39,298.74c21.66-17.04,64.36-14.61,74.46-0.4c-4.07,14.28-1.09,52.48-4.08,72.76
					c0-0.03,0-0.06,0-0.09c-0.04,0.2-0.08,0.41-0.13,0.63c-0.04,0.17-0.4,0.63-0.47,0.76c-0.11,0.19-0.89-0.02-1.15-0.14
					c-0.09-0.04-0.14-0.17-0.14-0.27c-0.12-1.79-0.01-5.34-0.01-5.38c0.24-2.79,0.84-5.48,1.25-8.2
					c-2.03-12.78-8.03-15.47-11.17-30.89c-0.67-1.03-1.38-2.03-2.12-3c-0.86-1.12-1.75-2.2-2.79-3.15
					c-0.54-0.33-1.07-0.69-1.58-1.09c-11.66-4.27-11.27-1.1-22.27,3.39c-4.21,1.72-16.03,5.03-20.67,4.67
					c-1.98-0.15-8.8-0.79-8.95-2.47c-8.72,13.47-9.61,23.09-12.17,34.66c0.35,2.01,0.73,4.02,0.9,6.08c0,0.04,0.11,3.59-0.01,5.38
					c-0.01,0.1-0.05,0.23-0.14,0.27c-0.26,0.13-1.04,0.33-1.15,0.14c-0.07-0.13-0.43-0.6-0.47-0.76c-0.2-0.77-0.24-1.42-0.28-2.2
					c-0.13-1.01-0.31-2.09-0.45-3.19C602.46,353.73,596.32,304.12,619.39,298.74z M652.22,315.49c0.36-0.11,0.72-0.22,1.08-0.32
					c-0.54,0.13-1.07,0.27-1.61,0.42C651.87,315.55,652.04,315.52,652.22,315.49z"/>
			</g>
			<path class="st16" d="M668.18,413.98l1.44,6.97l-4.79,37.4l-17.38-18.29L668.18,413.98z"/>
			<polyline class="st10" points="626.49,413.98 647.44,440.05 668.18,413.98 668.18,413.36 647.44,439.32 626.49,413.36 
				626.49,413.98 			"/>
			<polygon class="st11" points="643.42,457.53 651.25,457.53 651.28,457.78 643.38,457.78 			"/>
		</g>
		<g>
			<path class="st4" d="M373.92,339.64c-42.93,18.82-55.8,28.85-60.9,33.36c-7.84,6.94-12.18,32.82-16.81,54.78h97.12h97.12
				c-4.62-21.97-8.96-47.84-16.81-54.78c-5.09-4.51-17.49-14.28-60.42-33.1L373.92,339.64z"/>
			<path class="st25" d="M373.92,339.64c-42.93,18.82-55.8,28.85-60.89,33.36c-7.84,6.94-12.18,32.82-16.81,54.78h97.12h97.12
				c-4.62-21.97-8.96-47.84-16.81-54.78c-5.09-4.51-17.49-14.28-60.42-33.1L373.92,339.64z"/>
			<path class="st32" d="M372.49,302.12v31.86v15.73c11.46,13.55,30.22,14.04,41.69,0v-15.73v-31.86
				C414.18,276.43,372.49,276.43,372.49,302.12z"/>
			<path class="st32" d="M349.87,272.21c3.67-1.21,8.34,2.96,10.43,9.31c2.09,6.35,0.81,12.48-2.86,13.69
				c-3.67,1.21-8.34-2.96-10.43-9.31C344.91,279.54,346.2,273.42,349.87,272.21z"/>
			<path class="st32" d="M436.62,272.21c-3.67-1.21-8.35,2.96-10.44,9.31c-2.09,6.35-0.81,12.48,2.86,13.69
				c3.67,1.21,8.35-2.96,10.44-9.31C441.57,279.54,440.28,273.42,436.62,272.21z"/>
			<path class="st18" d="M384.37,369.71l5.05,7.82c2.61,0,5.22,0,7.83,0l5.05-7.82l-8.86-9.65L384.37,369.71z"/>
			<polygon class="st18" points="389.42,377.53 382.23,427.78 404.44,427.78 397.25,377.53 			"/>
			<path class="st16" d="M372.49,333.98l-1.82,7.09l5.1,36.91l17.67-17.92L372.49,333.98z"/>
			<path class="st8" d="M372.49,325.16v1.5c0,0,10.65,12.64,20.8,13.09c10.16,0.46,20.88-12.24,20.88-12.24v-2.31"/>
			<g>
				<path class="st32" d="M393.37,216.69c-64.12,0-39.55,87.84-35.36,94.57c4.62,7.42,25,23.78,35.36,23.78
					c10.36,0,30.74-16.36,35.36-23.78C432.92,304.53,457.49,216.69,393.37,216.69z"/>
				<path class="st33" d="M422.94,218.74c-22.09-19.49-65.36,5.4-75.45,19.6c4.07,14.28,2.09,32.48,5.08,52.75c0-0.03,0-0.06,0-0.09
					c0.04,0.2,0.08,0.41,0.13,0.63c0.04,0.17,0.4,0.63,0.47,0.76c0.11,0.19,0.89-0.02,1.15-0.14c0.09-0.04,0.14-0.17,0.14-0.27
					c0.12-1.79,0.01-5.34,0.01-5.38c-0.24-2.79,0.16-5.62-0.25-8.35c2.03-12.78,0.39-13.32,7.38-26.08
					c0.59-1.08,4.33-5.44,4.83-5.83c11.66-4.27,15.72,2.84,26.72,7.33c4.21,1.72,10.54,1.83,15.2,1.83c7.25,0,14.28-7.96,14.42-9.63
					c8.71,13.47,9.61,23.09,12.17,34.66c-0.35,2.01-0.73,4.02-0.9,6.08c-0.01,0.04-0.11,3.59,0.01,5.38
					c0.01,0.1,0.05,0.23,0.14,0.27c0.26,0.13,1.05,0.33,1.15,0.14c0.07-0.13,0.43-0.6,0.47-0.76c0.2-0.77,0.24-1.42,0.28-2.2
					c0.13-1.01,0.31-2.09,0.45-3.19C439.87,273.73,446.01,224.12,422.94,218.74z M390.12,235.49c-0.36-0.11-0.72-0.22-1.08-0.32
					c0.54,0.13,1.07,0.27,1.61,0.42C390.47,235.55,390.29,235.52,390.12,235.49z"/>
				<path class="st22" d="M184.88,209.19c22.63-19.49,66.96,5.4,77.3,19.6c-4.17,14.28-2.14,32.48-5.21,52.75c0-0.03,0-0.06,0-0.09
					c-0.04,0.2-0.08,0.41-0.13,0.63c-0.04,0.16-0.41,0.63-0.49,0.76c-0.11,0.19-0.91-0.02-1.18-0.14c-0.1-0.04-0.14-0.17-0.14-0.27
					c-0.12-1.79-0.01-5.34-0.01-5.38c0.24-2.79-0.16-5.62,0.25-8.35c-2.08-12.78-0.4-13.32-7.56-26.08
					c-0.6-1.08-4.43-5.44-4.95-5.83c-11.94-4.27-16.1,2.84-27.37,7.33c-4.31,1.72-10.8,1.83-15.57,1.83
					c-7.43,0-14.62-7.96-14.77-9.63c-8.93,13.47-9.84,23.09-12.46,34.66c0.36,2.01,0.75,4.02,0.92,6.08
					c0.01,0.04,0.12,3.59-0.01,5.38c-0.01,0.1-0.05,0.23-0.15,0.27c-0.27,0.13-1.07,0.33-1.18,0.14c-0.07-0.13-0.44-0.6-0.49-0.76
					c-0.2-0.77-0.24-1.42-0.28-2.2c-0.14-1.01-0.32-2.09-0.46-3.19C167.53,264.18,161.24,214.56,184.88,209.19z M218.5,225.94
					c0.37-0.11,0.74-0.22,1.11-0.32c-0.55,0.13-1.1,0.27-1.65,0.42C218.14,226,218.32,225.97,218.5,225.94z"/>
			</g>
			<path class="st16" d="M414.18,333.98l1.44,6.97l-4.79,37.4l-17.38-18.29L414.18,333.98z"/>
			<polyline class="st10" points="372.49,333.98 393.44,360.05 414.18,333.98 414.18,333.36 393.44,359.32 372.49,333.36 
				372.49,333.98 			"/>
			<polygon class="st11" points="389.42,377.53 397.25,377.53 397.28,377.78 389.38,377.78 			"/>
		</g>
		<g>
			<path class="st34" d="M506.74,349.25c4.55-7.9,40.77-14.86,55.55,13.21c14.78,28.07,7.34,37.91,15.49,47.81
				c8.16,9.91,0.48,32.65-5.19,34.64c-5.67,1.99-3.39,9.86-0.63,13.24c11.79,14.42-5.26,38.74-50.79,38.49
				c-48.67-0.27-58.21-28.54-45.74-37.36c4.07-2.88,5.65-8.4,1.19-13.27c-4.46-4.87-14.73-23-5.05-37.86
				C481.26,393.29,472.8,349.23,506.74,349.25z"/>
			<path class="st21" d="M541.08,464.82c-0.36,0.56-35.55,1.12-35.94,1.68c-11.05,15.77-34.93,22.67-53.93,26.92
				c-18.9,4.22-19.63,28.23-19.66,44.22h184.24c-0.03-15.99-0.38-39.91-19.66-44.22C576.84,489.11,551.56,481.3,541.08,464.82z"/>
			<path class="st35" d="M505.21,431.14v30.28v14.94c9.25,18.92,25.85,19.41,36.92,0v-14.94v-30.28
				C542.12,406.73,505.21,406.73,505.21,431.14z"/>
			<path class="st35" d="M572.36,410.03c-3.69-1.66-8.9,2.42-11.63,9.1c-2.74,6.69-1.97,13.45,1.72,15.11
				c3.69,1.66,8.9-2.41,11.64-9.1C576.81,418.45,576.05,411.69,572.36,410.03z"/>
			<path class="st35" d="M475.01,410.03c3.69-1.66,8.9,2.41,11.64,9.1c2.74,6.69,1.97,13.45-1.72,15.11
				c-3.69,1.66-8.9-2.41-11.64-9.1C470.55,418.45,471.33,411.69,475.01,410.03z"/>
			<path class="st27" d="M505.21,453.64v1.26c0,0,11.58,11.57,18.29,11.57c6.7,0,18.63-11.7,18.63-11.7v-1.13H505.21z"/>
			<path class="st35" d="M523.7,462.42c-11.46,0-35.68-18.89-43.16-45.95c-7.56-27.33,6.68-66.52,43.16-66.52
				c36.49,0,50.72,39.19,43.16,66.52C559.38,443.53,535.16,462.42,523.7,462.42z"/>
			<path class="st12" d="M515.12,383.84c-8.95,18.77-12.59,24.31-24.49,19.36c-11.9-4.95-9.64,8.93-7.48,18.84
				c-10.54-13.38-9.3-26.09-6.03-39.01c3.59-14.16,21.72-35.7,38.72-35.31c9.24-0.97,23.22,0.18,38.09,10.89
				c25.97,18.72,17.3,60.77,10.3,65.72c6.78-38.95-9.82-31.02-21.26-51.39C539.21,363.98,524.85,363.43,515.12,383.84z"/>
			<rect x="521.26" y="490.94" class="st7" width="3.78" height="46.7"/>
			<g>
				<polygon class="st7" points="505.21,466.46 492.03,478.5 508.79,504.5 523.25,490.79 				"/>
				<polygon class="st7" points="542.12,466.37 555.3,478.92 537.71,504.5 523.25,490.79 				"/>
			</g>
			<path class="st21" d="M543.71,430.56c0.36-0.01,0.74-0.03,1.12-0.06c10.48-0.88,13.06-5.58,14.23-11.53
				c1.3-6.53,1.38-8.8,3.07-9.4c1.23-0.45,1.54-1.9,1.5-3.61c-0.04-1.7-0.1-1.88-2.14-2.59c-1.62-0.57-10.56-1.38-17.27-0.95
				l-0.03,1.76c5.29-0.29,10.38,0.35,11.86,1.3c3.36,2.18,2.38,12.69-0.45,17.9c-1.97,3.62-7.17,5.45-11.87,5.53L543.71,430.56z
				 M524.14,405.85c-2.31,0.06-11.77-2.67-18.5-3.25c-0.48-0.04-0.97-0.08-1.48-0.11l-0.03,1.76c5.47,0.25,11.13,1.49,13.07,4.41
				c3.18,4.79-2.54,16.51-7.71,19.12c-1.57,0.79-3.64,1.2-5.82,1.22l-0.03,1.66c9.06,0.01,12.41-6.52,13.52-8.7
				c2.11-4.1,1.67-9.76,6.86-9.77c5.18-0.01,4.5,5.54,6.35,9.64c1,2.21,3.94,8.99,13.34,8.73l0.02-1.65
				c-2.32,0.04-4.52-0.36-6.14-1.19c-5.01-2.59-10.03-14.27-6.55-19.08c2.09-2.9,7.72-4.17,13.14-4.46l0.03-1.76
				c-0.42,0.02-0.82,0.05-1.22,0.09C536.94,403.06,529.59,405.71,524.14,405.85z M504.16,402.49c-6.64-0.35-15.45,0.48-17.07,1.04
				c-2.09,0.72-2.15,0.91-2.3,2.61c-0.14,1.7,0.08,3.16,1.28,3.6c1.65,0.59,1.6,2.87,2.5,9.39c0.81,5.94,3.1,10.63,13.53,11.46
				c0.53,0.05,1.05,0.06,1.55,0.07l0.03-1.66c-4.79,0.04-10.12-1.77-11.92-5.48c-2.52-5.2-2.87-15.7,0.64-17.9
				c1.51-0.95,6.54-1.61,11.73-1.37L504.16,402.49z"/>
			<polygon class="st36" points="505.21,466.46 523.25,490.79 542.12,466.37 542.1,465.86 523.25,490.1 505.21,465.86 			"/>
		</g>
		<g>
			<path class="st4" d="M264.02,454.12c-42.93,18.82-55.81,28.85-60.9,33.36c-7.84,6.94-12.18,32.82-16.81,54.78h97.12h97.12
				c-4.63-21.97-8.97-47.84-16.81-54.78c-5.09-4.51-17.49-14.28-60.42-33.1L264.02,454.12z"/>
			<path class="st37" d="M264.01,454.12c-42.93,18.82-55.8,28.85-60.89,33.36c-7.84,6.94-12.18,32.82-16.81,54.78h97.12h97.12
				c-4.63-21.97-8.97-47.84-16.81-54.78c-5.09-4.51-17.49-14.28-60.42-33.1L264.01,454.12z"/>
			<path class="st38" d="M262.59,416.61v31.86v15.73c11.46,13.55,30.22,14.04,41.69,0v-15.73v-31.86
				C304.27,390.91,262.59,390.91,262.59,416.61z"/>
			<path class="st38" d="M239.97,386.69c3.67-1.21,8.34,2.96,10.43,9.3c2.09,6.35,0.81,12.48-2.86,13.69
				c-3.67,1.21-8.34-2.96-10.43-9.31C235.01,394.03,236.29,387.9,239.97,386.69z"/>
			<path class="st38" d="M326.71,386.69c-3.67-1.21-8.34,2.96-10.44,9.3c-2.09,6.35-0.81,12.48,2.86,13.69
				c3.67,1.21,8.34-2.96,10.43-9.31C331.67,394.03,330.38,387.9,326.71,386.69z"/>
			<path class="st7" d="M283.54,474.54c0,0-29.09,6.94-29.09,8.7c0,1.76,11.07,59.02,11.07,59.02h39.49l4.53-58.77L283.54,474.54z"
				/>
			<polygon class="st39" points="262.59,454.75 262.59,464.19 271.64,542.26 256.07,542.26 238.95,507.49 255.3,496.59 
				235.31,487.25 253.69,458.74 			"/>
			<polygon class="st39" points="304.27,454.79 304.27,464.19 295.13,542.26 310.7,542.26 327.83,507.49 311.48,496.59 
				331.46,487.25 315.13,459.62 			"/>
			<path class="st28" d="M274.47,484.19l5.05,7.82c2.61,0,5.22,0,7.83,0l5.05-7.82l-8.86-9.65L274.47,484.19z"/>
			<polygon class="st28" points="279.52,492.01 272.33,542.26 294.53,542.26 287.35,492.01 			"/>
			<path class="st16" d="M262.59,448.46l-1.82,7.09l5.1,36.91l17.67-17.92L262.59,448.46z"/>
			<path class="st8" d="M262.59,439.65v1.5c0,0,10.65,12.64,20.81,13.09c10.16,0.46,20.88-12.24,20.88-12.24v-2.31"/>
			<g>
				<path class="st40" d="M316.45,334.77c9.54,1.52,14.82,8.06,17.08,16.94c5.88,23.11-6.43,73.23-49.05,73.82
					c-21.97,0.31-37.8-5.28-43.57-23.07c-5.77-17.79-8.14-46.45,4.4-62.51C261.08,319.74,294.19,319.55,316.45,334.77z"/>
				<path class="st38" d="M283.47,331.18c-64.12,0-39.55,87.84-35.36,94.57c4.62,7.42,25,23.78,35.36,23.78
					c10.36,0,30.74-16.36,35.36-23.78C323.02,419.01,347.59,331.18,283.47,331.18z"/>
				<path class="st40" d="M252.44,358.77c11.42,6.94,20.25-3.42,30.57,1.03c10.31,4.44,38.21-16.93,44.29,30.01
					c9.76-34.04-5.03-58.37-42.25-59.99c-39.74-1.73-55.83,34.49-44.85,68.31C239.49,379.8,243.97,367.82,252.44,358.77z"/>
				<g>
					<g>
						<path class="st41" d="M251.43,355.62c-0.43,1.92,1.87,3.75,3.33,4.51c2.35,1.23,4.96,1.96,7.58,2.32
							c2.43,0.34,4.9,0.54,7.35,0.4c3.59-0.2,7.12-1.16,10.49-2.37c2.03-0.73,4.02-1.57,6.03-2.33c2.06-0.78,4.23-1.38,5.79-2.98
							c0.35-0.36,0.18-0.96-0.29-1.1c-3.31-1.01-7.16,1.13-10.23,2.26c-3.36,1.23-6.75,2.5-10.31,3.02
							c-4.36,0.63-9.23,0.12-13.46-1.03c-1.21-0.33-2.29-0.83-3.41-1.35c-0.9-0.42-1.46-1.07-2.25-1.6
							C251.83,355.22,251.49,355.36,251.43,355.62L251.43,355.62z"/>
					</g>
				</g>
			</g>
			<path class="st28" d="M303.27,412.96c0.36-0.01,0.73-0.03,1.12-0.06c10.43-0.87,13-5.56,14.17-11.48
				c1.29-6.5,1.37-8.77,3.05-9.36c1.23-0.44,1.53-1.9,1.49-3.59c-0.05-1.69-0.1-1.87-2.13-2.58c-1.61-0.56-10.52-1.37-17.2-0.95
				l-0.03,1.75c5.26-0.29,10.34,0.35,11.81,1.3c3.35,2.17,2.37,12.63-0.45,17.82c-1.96,3.6-7.14,5.43-11.81,5.51L303.27,412.96z
				 M283.78,388.35c-2.3,0.06-11.72-2.66-18.43-3.24c-0.48-0.05-0.96-0.08-1.47-0.11l-0.03,1.75c5.45,0.25,11.09,1.48,13.02,4.39
				c3.17,4.77-2.53,16.44-7.68,19.03c-1.57,0.79-3.63,1.2-5.8,1.22l-0.03,1.65c9.02,0.01,12.35-6.49,13.47-8.66
				c2.1-4.08,1.66-9.71,6.83-9.72c5.16-0.01,4.48,5.51,6.32,9.59c0.99,2.2,3.92,8.96,13.28,8.69l0.02-1.65
				c-2.31,0.04-4.5-0.36-6.11-1.19c-4.99-2.57-9.98-14.21-6.52-19c2.09-2.89,7.68-4.15,13.08-4.44l0.03-1.75
				c-0.41,0.02-0.82,0.05-1.22,0.09C296.52,385.57,289.2,388.21,283.78,388.35z M263.88,385.01c-6.62-0.35-15.38,0.48-17,1.04
				c-2.08,0.72-2.15,0.9-2.29,2.6c-0.14,1.69,0.08,3.15,1.27,3.58c1.64,0.59,1.59,2.86,2.49,9.35c0.81,5.92,3.09,10.59,13.47,11.41
				c0.53,0.05,1.05,0.06,1.55,0.07l0.03-1.65c-4.77,0.04-10.08-1.77-11.87-5.46c-2.51-5.18-2.86-15.63,0.64-17.83
				c1.51-0.95,6.51-1.6,11.68-1.36L263.88,385.01z"/>
			<path class="st16" d="M304.27,448.46l1.44,6.97l-4.79,37.4l-17.38-18.29L304.27,448.46z"/>
			<polyline class="st10" points="262.59,448.46 283.54,474.54 304.27,448.46 304.27,447.84 283.54,473.8 262.59,447.84 
				262.59,448.46 			"/>
			<polygon class="st11" points="279.52,492.01 287.35,492.01 287.38,492.27 279.48,492.27 			"/>
		</g>
		<g>
			<path class="st4" d="M370.87,479.67c-42.93,18.82-55.81,28.85-60.9,33.36c-7.84,6.94-12.18,32.82-16.81,54.78h97.12h97.12
				c-4.63-21.97-8.97-47.84-16.81-54.78c-5.09-4.51-17.49-14.28-60.42-33.1L370.87,479.67z"/>
			<path class="st37" d="M370.87,479.67c-42.93,18.82-55.8,28.85-60.89,33.36c-7.84,6.94-12.18,32.82-16.81,54.78h97.12h97.12
				c-4.63-21.97-8.97-47.84-16.81-54.78c-5.09-4.51-17.49-14.28-60.42-33.1L370.87,479.67z"/>
			<path class="st42" d="M369.44,442.15v31.86v15.73c11.46,13.55,30.22,14.04,41.69,0v-15.73v-31.86
				C411.13,416.46,369.44,416.46,369.44,442.15z"/>
			<path class="st42" d="M346.82,412.24c3.67-1.21,8.34,2.96,10.43,9.31c2.09,6.35,0.81,12.48-2.86,13.68
				c-3.67,1.21-8.34-2.96-10.43-9.31C341.87,419.57,343.15,413.44,346.82,412.24z"/>
			<path class="st42" d="M433.57,412.24c-3.67-1.21-8.34,2.96-10.44,9.31c-2.09,6.35-0.81,12.48,2.86,13.68
				c3.67,1.21,8.35-2.96,10.43-9.31C438.52,419.57,437.24,413.44,433.57,412.24z"/>
			<path class="st43" d="M390.4,500.08c0,0-29.09,6.94-29.09,8.7c0,1.76,11.07,59.02,11.07,59.02h39.49l4.53-58.77L390.4,500.08z"/>
			<polygon class="st19" points="369.44,480.29 369.44,489.73 378.5,567.8 362.93,567.8 345.8,533.03 362.15,522.13 342.17,512.79 
				360.54,484.28 			"/>
			<polygon class="st20" points="411.13,480.34 411.13,489.73 401.99,567.8 417.56,567.8 434.68,533.03 418.34,522.13 
				438.31,512.79 421.99,485.16 			"/>
			<path class="st44" d="M381.32,509.74l5.05,7.82c2.61,0,5.22,0,7.83,0l5.05-7.82l-8.85-9.65L381.32,509.74z"/>
			<polygon class="st44" points="386.37,517.56 379.19,567.8 401.39,567.8 394.2,517.56 			"/>
			<path class="st7" d="M369.44,474.01l-1.82,7.09l5.1,36.91l17.67-17.92L369.44,474.01z"/>
			<path class="st8" d="M369.44,465.19v1.5c0,0,10.65,12.64,20.8,13.09c10.16,0.46,20.88-12.24,20.88-12.24v-2.31"/>
			<g>
				<path class="st42" d="M390.32,356.72c-64.12,0-39.55,87.84-35.36,94.57c4.62,7.42,25,23.78,35.36,23.78
					c10.36,0,30.74-16.36,35.36-23.78C429.87,444.56,454.45,356.72,390.32,356.72z"/>
				<path class="st22" d="M419.09,358.77c-21.66-17.04-55.1-6.88-65.2,7.32c-12.64,17.77-8.17,44.76-5.18,65.03
					c0-0.03,0-0.06,0-0.09c0.03,0.2,0.08,0.41,0.13,0.63c0.04,0.16,0.4,0.63,0.47,0.76c0.11,0.19,0.89-0.02,1.15-0.14
					c0.1-0.04,0.14-0.17,0.14-0.27c0.12-1.79,0.01-5.34,0.01-5.38c-0.24-2.79-0.84-5.48-1.25-8.2c2.03-12.78,8.03-15.47,11.17-30.89
					c0.66-1.03,1.38-2.03,2.12-3c0.86-1.12,1.75-2.2,2.79-3.15c0.55-0.33,1.07-0.69,1.58-1.09c11.66-4.27,23.67,0.85,34.68,5.34
					c4.21,1.72,8.93,3.75,13.57,3.39c1.98-0.15,3.5-1.46,3.65-3.13c5.27,15.77,9.61,23.09,12.17,34.66
					c-0.35,2.01-0.73,4.02-0.9,6.08c0,0.04-0.11,3.59,0.01,5.38c0.01,0.1,0.05,0.23,0.14,0.27c0.26,0.13,1.04,0.33,1.15,0.14
					c0.07-0.13,0.43-0.59,0.47-0.76c0.2-0.77,0.24-1.42,0.28-2.2c0.13-1.01,0.31-2.09,0.45-3.19
					C436.02,413.76,442.16,364.15,419.09,358.77z M386.26,375.52c-0.36-0.11-0.72-0.22-1.08-0.32c0.54,0.13,1.07,0.27,1.61,0.42
					C386.61,375.58,386.44,375.55,386.26,375.52z"/>
			</g>
			<path class="st7" d="M411.13,474.01l1.44,6.97l-4.79,37.4l-17.38-18.29L411.13,474.01z"/>
			<polyline class="st10" points="369.44,474.01 390.4,500.08 411.13,474.01 411.13,473.39 390.4,499.34 369.44,473.39 
				369.44,474.01 			"/>
			<polygon class="st11" points="386.37,517.56 394.2,517.56 394.24,517.81 386.33,517.81 			"/>
		</g>
		<g class="st0">
			<path class="st3" d="M329.18,652.54c0-1.62,0.19-3.13,0.56-4.52c0.38-1.39,0.95-2.59,1.73-3.61c0.78-1.01,1.77-1.81,2.98-2.39
				c1.21-0.58,2.64-0.87,4.31-0.87c1.66,0,3.09,0.29,4.29,0.87c1.2,0.58,2.19,1.37,2.97,2.39c0.78,1.01,1.36,2.22,1.73,3.61
				c0.38,1.39,0.56,2.9,0.56,4.52c0,1.62-0.19,3.12-0.56,4.49c-0.38,1.37-0.95,2.56-1.73,3.56c-0.78,1-1.77,1.79-2.97,2.34
				c-1.2,0.56-2.63,0.84-4.29,0.84c-1.66,0-3.1-0.28-4.31-0.84c-1.21-0.56-2.2-1.34-2.98-2.34c-0.78-1-1.36-2.19-1.73-3.56
				C329.37,655.66,329.18,654.16,329.18,652.54z M342.66,652.54c0-4.42-1.29-6.63-3.86-6.63c-2.64,0-3.96,2.21-3.96,6.63
				c0,2.21,0.32,3.86,0.96,4.94c0.64,1.08,1.63,1.63,2.97,1.63C341.36,659.11,342.66,656.92,342.66,652.54z"/>
			<path class="st3" d="M359.64,663.74c-1.64,0-3.01-0.22-4.09-0.67c-1.09-0.45-1.94-1.09-2.57-1.93c-0.63-0.84-1.07-1.86-1.32-3.06
				c-0.25-1.2-0.38-2.54-0.38-4.05v-12.44c0.59-0.08,1.1-0.14,1.52-0.17c0.43-0.03,0.83-0.05,1.22-0.05c0.34,0,0.73,0.01,1.14,0.05
				c0.42,0.03,0.92,0.09,1.51,0.17v11.81c0,1.01,0.04,1.88,0.12,2.59c0.08,0.71,0.23,1.29,0.44,1.73c0.21,0.45,0.51,0.77,0.9,0.96
				c0.38,0.19,0.89,0.29,1.52,0.29s1.14-0.1,1.54-0.29c0.4-0.19,0.7-0.51,0.91-0.96c0.21-0.45,0.35-1.02,0.43-1.73
				c0.07-0.71,0.11-1.57,0.11-2.59v-11.81c0.61-0.08,1.12-0.14,1.54-0.17c0.42-0.03,0.8-0.05,1.14-0.05c0.37,0,0.76,0.01,1.19,0.05
				c0.43,0.03,0.93,0.09,1.52,0.17v12.44c0,1.5-0.13,2.85-0.38,4.05c-0.25,1.2-0.69,2.22-1.32,3.06s-1.49,1.49-2.57,1.93
				C362.65,663.52,361.28,663.74,359.64,663.74z"/>
			<path class="st3" d="M371.54,641.59c0.99-0.1,1.91-0.2,2.75-0.29c0.84-0.09,1.73-0.14,2.66-0.14c1.12,0,2.23,0.11,3.35,0.32
				c1.12,0.21,2.11,0.58,2.98,1.11c0.87,0.53,1.58,1.25,2.13,2.16c0.55,0.91,0.82,2.07,0.82,3.47c0,0.75-0.09,1.43-0.26,2.02
				c-0.17,0.6-0.4,1.13-0.67,1.6c-0.27,0.47-0.58,0.87-0.91,1.22c-0.33,0.35-0.66,0.64-0.99,0.88l4.75,9.37
				c-0.49,0.08-1.02,0.14-1.6,0.18c-0.58,0.04-1.1,0.06-1.57,0.06c-0.41,0-0.88-0.02-1.41-0.06c-0.54-0.04-1.01-0.1-1.42-0.18
				l-4.32-9.95l0.27-0.15c0.24-0.12,0.51-0.32,0.81-0.61c0.29-0.28,0.57-0.62,0.82-1.02c0.25-0.4,0.47-0.84,0.64-1.32
				c0.17-0.49,0.26-0.99,0.26-1.52c0-1.01-0.28-1.75-0.85-2.22c-0.57-0.47-1.27-0.7-2.1-0.7c-0.2,0-0.38,0.01-0.52,0.03
				c-0.14,0.02-0.23,0.04-0.27,0.06v17.41c-1.08,0.18-1.96,0.27-2.65,0.27c-0.75,0-1.65-0.09-2.71-0.27V641.59z"/>
			<path class="st3" d="M400.96,646.27h-5.08c-0.18-0.87-0.27-1.67-0.27-2.4c0-0.67,0.09-1.45,0.27-2.34h15.55
				c0.08,0.45,0.14,0.86,0.18,1.25c0.04,0.39,0.06,0.75,0.06,1.1c0,0.67-0.08,1.47-0.24,2.4h-5.08v17.04
				c-1.08,0.18-1.97,0.27-2.68,0.27c-0.75,0-1.65-0.09-2.71-0.27V646.27z"/>
			<path class="st3" d="M425.48,651.99c0,0.71-0.09,1.5-0.27,2.37h-5.87v4.32h7.64c0.18,0.85,0.27,1.62,0.27,2.31
				c0,0.75-0.09,1.55-0.27,2.4h-13.02v-21.88h12.84c0.08,0.45,0.14,0.86,0.18,1.25c0.04,0.39,0.06,0.75,0.06,1.1
				c0,0.67-0.08,1.47-0.24,2.4h-7.46v3.35h5.87C425.39,650.51,425.48,651.3,425.48,651.99z"/>
			<path class="st3" d="M433.58,663.34c-0.47,0.08-0.89,0.14-1.28,0.18c-0.39,0.04-0.76,0.06-1.13,0.06c-0.37,0-0.79-0.03-1.26-0.08
				c-0.48-0.05-1.01-0.13-1.6-0.23l6.81-21.72c0.53-0.06,1.02-0.11,1.48-0.15c0.46-0.04,0.92-0.06,1.38-0.06
				c0.38,0,0.81,0.02,1.26,0.06c0.46,0.04,0.98,0.09,1.57,0.15l6.72,21.76c-1.16,0.18-2.17,0.27-3.04,0.27
				c-0.41,0-0.81-0.02-1.22-0.06c-0.41-0.04-0.84-0.1-1.31-0.18l-1.16-4.23c-0.57,0.16-1.11,0.28-1.63,0.37
				c-0.52,0.08-1.03,0.12-1.54,0.12c-0.47,0-0.94-0.04-1.43-0.11c-0.49-0.07-0.99-0.18-1.52-0.32L433.58,663.34z M437.84,647.28
				l-2.04,7.82c0.34,0.1,0.67,0.18,0.97,0.24c0.3,0.06,0.62,0.09,0.94,0.09c0.34,0,0.68-0.03,1.02-0.08
				c0.33-0.05,0.68-0.13,1.05-0.23L437.84,647.28z"/>
			<path class="st3" d="M450.16,641.59c0.43-0.06,0.89-0.12,1.38-0.17c0.5-0.05,0.96-0.08,1.38-0.08c0.41,0,0.85,0.03,1.32,0.08
				c0.48,0.05,0.92,0.11,1.32,0.17l4.32,11.32l4.47-11.32c0.41-0.06,0.82-0.12,1.23-0.17c0.42-0.05,0.83-0.08,1.23-0.08
				c0.43,0,0.86,0.03,1.31,0.08c0.45,0.05,0.88,0.11,1.31,0.17l1.04,21.73c-0.32,0.06-0.69,0.12-1.08,0.18
				c-0.4,0.06-0.92,0.09-1.57,0.09c-0.71,0-1.55-0.09-2.53-0.27l-0.43-12.6l-3.35,8.31c-0.36,0.06-0.73,0.11-1.09,0.15
				c-0.37,0.04-0.7,0.06-1,0.06c-0.3,0-0.62-0.01-0.94-0.04c-0.33-0.03-0.66-0.09-1-0.17l-2.98-8.18l-0.34,12.48
				c-0.85,0.18-1.66,0.27-2.43,0.27c-0.71,0-1.53-0.09-2.46-0.27L450.16,641.59z"/>
			<g class="st2">
				<path class="st45" d="M476,658.5c0,5.5-4.5,10-10,10H334c-5.5,0-10-4.5-10-10V645c0-5.5,4.5-10,10-10h132c5.5,0,10,4.5,10,10
					V658.5z"/>
				<path class="st46" d="M334,671.5c-7.17,0-13-5.83-13-13V645c0-7.17,5.83-13,13-13h132c7.17,0,13,5.83,13,13v13.5
					c0,7.17-5.83,13-13,13H334z"/>
			</g>
		</g>
	</g>
	<rect x="425.21" y="648.67" class="st47" width="99.12" height="5.7"/>
	<g class="st0">
	</g>
	<text transform="matrix(1 0 0 1 348.3352 658.333)" class="st0 st48 st49">ABOUT US</text>
</g>
</svg>
